<?xml version="1.0" encoding="utf-8"?>
<!-- Generator: Adobe Illustrator 19.1.0, SVG Export Plug-In . SVG Version: 6.00 Build 0)  -->
<svg version="1.1" xmlns="http://www.w3.org/2000/svg" xmlns:xlink="http://www.w3.org/1999/xlink" x="0px" y="0px" width="800px"
	 height="500px" viewBox="0 0 800 500" style="enable-background:new 0 0 800 500;" xml:space="preserve">
<style type="text/css">
	.st0{fill:#FFFFFF;}
	.st1{opacity:0.5;fill:#C6C6C6;}
	.st2{opacity:0.5;fill:#864C9E;}
	.st3{opacity:0.2;}
	.st4{fill:#8E8E8E;}
	.st5{opacity:0.2;fill:#8E8E8E;}
	.st6{fill:#5A326D;}
	.st7{opacity:0.2;fill:#5A326D;}
	.st8{opacity:0.5;fill:#C9BEA9;}
	.st9{opacity:0.3;fill:#998565;}
	.st10{opacity:0.5;fill:#DFB945;}
	.st11{fill:#1E1E1E;}
	.st12{fill:#C91F4C;}
	.st13{fill:none;stroke:#1E1E1E;stroke-width:3;stroke-miterlimit:10;}
	.st14{fill:none;stroke:#1E1E1E;stroke-width:3;stroke-miterlimit:10;stroke-dasharray:9.9863,9.9863;}
	.st15{fill:#79A845;}
	.st16{fill:#40A6DD;}
	.st17{fill:#80D3F2;}
	.st18{fill:none;stroke:#1E1E1E;stroke-width:3;stroke-miterlimit:10;stroke-dasharray:10.0229,10.0229;}
</style>
<g id="Layer_2">
	<rect y="0" class="st0" width="800" height="500"/>
</g>
<g id="Layer_7">
	<path class="st2" d="M571.8,335.9c-1.2-1.4-2.6-1.6-3.8-1.2c-0.1-0.3-0.1-0.6-0.2-0.9c-0.7-3.1-4-2.6-6-1.2c-0.1,0-0.1,0.1-0.2,0.1
		c-0.8-3.5-4.4-2.8-7.1-0.3c0,0-0.1-0.1-0.1-0.1c-3.3-1.3-6.3-0.1-8.9,2.1c-4.6-1.1-8.4,2.4-11.3,7c-1.6,1.8-3,3.8-4.1,5.4
		c-3.2,4.7-5.4,9.9-6.6,15.5c-0.4,2,0,4.6,2.1,5.3c0.7,0.2,1.3,0.2,2,0c0.6,8.4,3.9,16.7,13.2,17.9c2.1,1.8,5.4,2.3,8.6,2.3
		c1.1,0.8,2.6,1.1,4.7,0.5c2.6,0.4,5.2,0.1,7.8-1c1.7-0.7,3.4-1.7,5-2.8c0.8-0.1,1.7-0.4,2.7-0.9c3.4-1.7,5.6-4.7,6.9-8.2
		c0.2-0.3,0.4-0.5,0.6-0.8C586.3,362.3,581.6,346.6,571.8,335.9z"/>
	<path class="st1" d="M637.7,141.5c-0.6-1.4-1.5-2.1-2.4-2.3c0.3-1.3,0.7-2.5,0.9-3.9c1-4.9-2.4-6-5.5-4.5c0.1-0.4,0.3-0.8,0.4-1.2
		c1.8-5.1-1.3-9.4-6.2-5.7c-0.6,0.4-1.1,0.9-1.6,1.4c0.3-3.6-0.9-6.3-5.5-5.2c-1.4,0.3-2.6,1-3.6,1.8c-0.3-0.1-0.6-0.3-0.9-0.4
		c-13.5-4-26,7.4-29.7,19.7c-4.1,13.6,1.6,26.5,12.5,34.9c0.7,0.6,1.5,0.8,2.2,0.7c0.2,2.2,1.4,4.3,4.1,3.6c1.6-0.4,3.1-1.1,4.5-1.9
		c0.1,0.4,0.1,0.7,0.2,1.1c0.9,3.9,4.8,2.2,7,0.4c0.1,0.1,0.1,0.1,0.2,0.2c4.6,3.8,9.9-2.4,13-7.2c5.7-1.8,8.1-8.5,9.9-13.7
		C639.1,153.7,640.1,147.4,637.7,141.5z"/>
	<path class="st1" d="M682.2,204.6c-1.4-3.2-3.6-7-7.3-7.9c-0.2-0.1-0.5-0.1-0.7-0.1c-3.6-6.5-9.2-10.9-17.2-9.2
		c-1.3,0.3-2.7,1.3-3.8,2.7c-1.3,0.2-2.5,0.5-3.7,0.9c-10.5-1.3-19.4,10.4-22,19.7c-3.6,13.4,2.5,25.4,9.8,36.3
		c1,1.5,2.3,1.7,3.7,1.2c0.4,0.3,0.8,0.6,1.2,0.8c1.7,0.9,4,0,5.2-1.3c0.9-0.9,1.8-1.9,2.5-2.8c0,0,0,0,0,0c1.7,1.8,3.7,2.1,5.6,1.7
		c1.6,0.6,3.3,0.7,5,0.5c0.6,0.6,1.6,0.9,2.8,0.5c9.1-2.8,17.3-7.2,20.9-16.6C687.4,222.5,685.7,212.8,682.2,204.6z"/>
	<path class="st1" d="M589.9,216.5c0-1.3-0.2-2.7-0.4-4c0-1.1-0.1-2.2-0.1-3.3c-0.1-2.5,0.1-5.7-1.4-7.9c-1.2-1.8-3.2-2.5-5.3-2.8
		c-1.2-1.3-2.5-2.6-4-3.7c-0.7-0.5-1.4-0.7-2.1-0.6c-2.9-2.3-6.4-3.8-10.7-4c-0.6-0.2-1.3-0.2-2,0c-0.3,0-0.6,0-0.9,0
		c-3.1,0.2-6.1,0.9-8.9,1.9c-0.3-0.1-0.5-0.2-0.9-0.3c-6.3-1.3-10.5,3.6-13,9.6c-5.7,6.5-8.8,15.1-7.5,24.6
		c2.4,17.8,21,27.3,37.6,22.4c10.4-3.1,18.8-11.3,20.1-22.4C590.8,222.8,590.6,219.6,589.9,216.5z"/>
	<path class="st1" d="M732.6,268.4c-1.3-1.7-2.8-1.8-4.3-1c-4.4-5.9-10.7-10.3-17.7-7.4c-0.6,0.2-1.1,0.5-1.6,0.8
		c-0.1-0.4-0.2-0.7-0.2-1.1c-0.8-3.4-4.7-2.5-6.7-0.7c-1.4,1.3-2.7,2.6-3.9,4c-0.2-0.3-0.5-0.5-0.8-0.7c-3-1.7-6.3,2.1-7.6,4.2
		c-9.3,14.6-13.9,36.2,0,49.6c2,2,4.4,1.1,6.2-0.6c6.3,8.6,24.2,5.4,30.6-1c3.6-3.5,6.1-8.1,7.5-13c2.5-3,4.1-7,4.7-10.6
		C739.8,283.8,736.9,274.3,732.6,268.4z"/>
	<path class="st1" d="M779.4,339.4c-5.4-6.4-13.4-9.2-21.1-8.3c-0.4-0.9-1.2-1.5-2.5-1.5c-13.3-0.1-24.5,9.9-27.3,22.8
		c-2,9.2,0.8,17.2,6.7,23.1c1.8,3.8,4.5,7.3,7.9,9.1c3,1.6,6,1.3,8.6,0c9.7,3.1,20,3.7,26.8-5.7C785.9,368.7,788,349.5,779.4,339.4z
		"/>
	<path class="st1" d="M705.1,349.1c0-0.9-0.1-1.8-0.3-2.6c-0.5-2.3-2.6-2.6-4.4-2c-1.6-4.9-3.7-9.4-9.2-10.8c-0.2-1.9-0.5-3.8-1-5.6
		c-1.1-4.5-6.3-1.6-8,0.6c-1.2,1.6-2.2,3.2-3,4.9c-0.6-0.8-1.3-1.7-2.2-2.4c-1.7-1.4-3.8-0.2-5.4,1.5c-7.3,0.1-14.5,5.4-18.3,12.4
		c-3.2,5.8-4.4,12.5-3.8,19.1c0.1,1.2,0.3,2.6,0.5,4.1c0.1,1.8,0.3,3.5,0.6,5.3c0.2,1.1,0.5,2.1,0.8,3.1c0,0.6,0.1,1.2,0.1,1.8
		c0.2,2.2,1.3,3.4,2.7,3.7c1.8,2.4,4.3,4.1,7.5,4.7c1.1,0.2,2.2,0.2,3.3,0.1c10.1,5.3,21.8,2.2,29.7-5.6c2.2-1.7,4.2-3.9,5.9-6.5
		C707.2,369.4,705.6,356.7,705.1,349.1z"/>
	<path class="st1" d="M648.6,270.5c-0.2-0.2-0.4-0.4-0.6-0.6c-1.1-2.9-2.3-5.8-3.8-8.6c-0.9-1.7-3-1.3-4.6-0.5c-0.9-1.6-2.2-3-4-3.9
		c-2.3-1.2-4.5,0-6.2,2c-0.4-0.5-0.9-1.1-1.4-1.5c-3-2.6-6.2,1.7-7.9,5.4c-3.7-0.7-8.7,3.6-10.9,5.9c-4.8,5.2-8.1,11.9-9.1,18.9
		c-1.8,12.7,4.8,25.3,16.9,30c1.4,0.5,3,0.1,4.5-0.8c1.7,1.2,3.6,1.9,5.8,1.7c0.2,0,0.4-0.1,0.6-0.1c2.2,3.4,6.1,4.2,9.7,2.1
		c1.7-1,3-2.2,4.1-3.6c0.8,0.1,1.7,0,2.6-0.6c6.5-3.5,9.4-10.1,10.2-17.3C659.8,289.3,656.3,278.8,648.6,270.5z"/>
	<path class="st1" d="M529.8,287c-0.2-6.1-1.9-12.2-6.1-16.7c-2.9-3.1-8.2-8.5-12.7-8.7c-1.9-0.1-3.7,0.6-5.3,1.7c0,0-0.1,0-0.1-0.1
		c-6.6-2.9-14.8-0.6-18.3,5.5c-11.3,7.1-14.5,24.7-6.7,35.7c4.3,6.1,12,11.8,19.7,12.3c4.2,0.3,8.1-1.1,11.4-3.5
		c0.5,0.4,1,0.7,1.8,0.9C526.8,316.4,530,296.2,529.8,287z"/>
	<path class="st1" d="M473.6,341.4c-2.4-3.3-5.3-4.6-8-4.6c-0.6-0.8-1.2-1.6-1.8-2.3c-1.5-1.8-3.2-1.7-4.7-0.7
		c-0.6-1.4-1.5-2.6-3-3.5c-2-1.2-3.9-0.4-5.4,1.1c-1.7-1.5-4.8-0.1-6.7,2c-0.6-0.2-1.3-0.3-2.1-0.1c-12.1,2.2-19,16-19.8,27.2
		c-0.7,10.6,3.7,21,12.3,27.3c0.7,0.5,1.5,0.5,2.3,0.3c0.2,1.1,0.7,2.2,1.4,3c4.3,4.9,15.6,1.9,20.9,0.4c2-0.6,3.8-2.2,5-4.1
		c8.5,0,13-13,14.4-19.7C480.1,359.2,479,348.7,473.6,341.4z"/>
	<path class="st2" d="M170.3,336.2c-1.2-1.4-2.6-1.6-3.8-1.2c-0.1-0.3-0.1-0.6-0.2-0.9c-0.7-3.1-4-2.6-6-1.2c-0.1,0-0.1,0.1-0.2,0.1
		c-0.8-3.5-4.4-2.8-7.1-0.3c0,0-0.1-0.1-0.1-0.1c-3.3-1.3-6.3-0.1-8.9,2.1c-4.6-1.1-8.4,2.4-11.3,7c-1.6,1.8-3,3.8-4.1,5.4
		c-3.2,4.7-5.4,9.9-6.6,15.5c-0.4,2,0,4.6,2.1,5.3c0.7,0.2,1.3,0.2,2,0c0.6,8.4,3.9,16.7,13.2,17.9c2.1,1.8,5.4,2.3,8.6,2.3
		c1.1,0.8,2.6,1.1,4.7,0.5c2.6,0.4,5.2,0.1,7.8-1c1.7-0.7,3.4-1.7,5-2.8c0.8-0.1,1.7-0.4,2.7-0.9c3.4-1.7,5.6-4.7,6.9-8.2
		c0.2-0.3,0.4-0.5,0.6-0.8C184.7,362.6,180,346.9,170.3,336.2z"/>
	<path class="st1" d="M236.1,141.8c-0.6-1.4-1.5-2.1-2.4-2.3c0.3-1.3,0.7-2.5,0.9-3.9c1-4.9-2.4-6-5.5-4.5c0.1-0.4,0.3-0.8,0.4-1.2
		c1.8-5.1-1.3-9.4-6.2-5.7c-0.6,0.4-1.1,0.9-1.6,1.4c0.3-3.6-0.9-6.3-5.5-5.2c-1.4,0.3-2.6,1-3.6,1.8c-0.3-0.1-0.6-0.3-0.9-0.4
		c-13.5-4-26,7.4-29.7,19.7c-4.1,13.6,1.6,26.5,12.5,34.9c0.7,0.6,1.5,0.8,2.2,0.7c0.2,2.2,1.4,4.3,4.1,3.6c1.6-0.4,3.1-1.1,4.5-1.9
		c0.1,0.4,0.1,0.7,0.2,1.1c0.9,3.9,4.8,2.2,7,0.4c0.1,0.1,0.1,0.1,0.2,0.2c4.6,3.8,9.9-2.4,13-7.2c5.7-1.8,8.1-8.5,9.9-13.7
		C237.6,154,238.6,147.7,236.1,141.8z"/>
	<path class="st1" d="M280.6,204.9c-1.4-3.2-3.6-7-7.3-7.9c-0.2-0.1-0.5-0.1-0.7-0.1c-3.6-6.5-9.2-10.9-17.2-9.2
		c-1.3,0.3-2.7,1.3-3.8,2.7c-1.3,0.2-2.5,0.5-3.7,0.9c-10.5-1.3-19.4,10.4-21.9,19.7c-3.6,13.4,2.5,25.4,9.8,36.3
		c1,1.5,2.3,1.7,3.7,1.2c0.4,0.3,0.8,0.6,1.2,0.8c1.7,0.9,4,0,5.2-1.3c0.9-0.9,1.8-1.9,2.5-2.8c0,0,0,0,0,0c1.7,1.8,3.7,2.1,5.6,1.7
		c1.6,0.6,3.3,0.7,5,0.5c0.6,0.6,1.6,0.9,2.8,0.5c9.1-2.8,17.3-7.2,20.9-16.6C285.8,222.8,284.2,213.1,280.6,204.9z"/>
	<path class="st1" d="M188.3,216.7c0-1.3-0.2-2.7-0.4-4c0-1.1-0.1-2.2-0.1-3.3c-0.1-2.5,0.1-5.7-1.4-7.9c-1.2-1.8-3.2-2.5-5.3-2.8
		c-1.2-1.3-2.5-2.6-4-3.7c-0.7-0.5-1.4-0.7-2.1-0.6c-2.9-2.3-6.4-3.8-10.7-4c-0.6-0.2-1.3-0.2-2,0c-0.3,0-0.6,0-0.9,0
		c-3.1,0.2-6.1,0.9-8.9,1.9c-0.3-0.1-0.5-0.2-0.9-0.3c-6.3-1.3-10.5,3.6-13,9.6c-5.7,6.5-8.8,15.1-7.5,24.6
		c2.4,17.8,21,27.3,37.6,22.4c10.4-3.1,18.8-11.3,20.1-22.4C189.3,223.1,189.1,219.9,188.3,216.7z"/>
	<path class="st1" d="M331,268.7c-1.3-1.7-2.8-1.8-4.3-1c-4.4-5.9-10.7-10.3-17.7-7.4c-0.6,0.2-1.1,0.5-1.6,0.8
		c-0.1-0.4-0.2-0.7-0.2-1.1c-0.8-3.4-4.7-2.5-6.7-0.7c-1.4,1.3-2.7,2.6-3.9,4c-0.2-0.3-0.5-0.5-0.8-0.7c-3-1.7-6.3,2.1-7.6,4.2
		c-9.3,14.6-13.9,36.2,0,49.6c2,2,4.4,1.1,6.2-0.6c6.3,8.6,24.2,5.4,30.6-1c3.6-3.5,6.1-8.1,7.5-13c2.5-3,4.1-7,4.7-10.6
		C338.3,284.1,335.3,274.6,331,268.7z"/>
	<path class="st1" d="M377.9,339.7c-5.4-6.4-13.4-9.2-21.1-8.3c-0.4-0.9-1.2-1.5-2.5-1.5c-13.3-0.1-24.5,9.9-27.3,22.8
		c-2,9.2,0.8,17.2,6.7,23.1c1.8,3.8,4.5,7.3,7.9,9.1c3,1.6,6,1.3,8.6,0c9.7,3.1,20,3.7,26.8-5.7C384.4,369,386.4,349.8,377.9,339.7z
		"/>
	<path class="st1" d="M303.6,349.4c0-0.9-0.1-1.8-0.3-2.6c-0.5-2.3-2.6-2.6-4.4-2c-1.6-4.9-3.7-9.4-9.2-10.8c-0.2-1.9-0.5-3.8-1-5.6
		c-1.1-4.5-6.3-1.6-8,0.6c-1.2,1.6-2.2,3.2-3,4.9c-0.6-0.8-1.3-1.7-2.2-2.4c-1.7-1.4-3.8-0.2-5.4,1.5c-7.3,0.1-14.5,5.4-18.3,12.4
		c-3.2,5.8-4.4,12.5-3.8,19.1c0.1,1.2,0.3,2.6,0.5,4.1c0.1,1.8,0.3,3.5,0.6,5.3c0.2,1.1,0.5,2.1,0.8,3.1c0,0.6,0.1,1.2,0.1,1.8
		c0.2,2.2,1.3,3.4,2.7,3.7c1.8,2.4,4.3,4.1,7.5,4.7c1.1,0.2,2.2,0.2,3.3,0.1c10.1,5.3,21.8,2.2,29.7-5.6c2.2-1.7,4.2-3.9,5.9-6.5
		C305.6,369.7,304,357,303.6,349.4z"/>
	<path class="st1" d="M247,270.8c-0.2-0.2-0.4-0.4-0.6-0.6c-1.1-2.9-2.3-5.8-3.8-8.6c-0.9-1.7-3-1.3-4.6-0.5c-0.9-1.6-2.2-3-4-3.9
		c-2.3-1.2-4.5,0-6.2,2c-0.4-0.5-0.9-1.1-1.4-1.5c-3-2.6-6.2,1.7-7.9,5.4c-3.7-0.7-8.7,3.6-10.9,5.9c-4.8,5.2-8.1,11.9-9.1,18.9
		c-1.8,12.7,4.8,25.3,16.9,30c1.4,0.5,3,0.1,4.5-0.8c1.7,1.2,3.6,1.9,5.8,1.7c0.2,0,0.4-0.1,0.6-0.1c2.2,3.4,6.1,4.2,9.7,2.1
		c1.7-1,3-2.2,4.1-3.6c0.8,0.1,1.7,0,2.6-0.6c6.5-3.5,9.4-10.1,10.2-17.3C258.2,289.6,254.7,279.1,247,270.8z"/>
	<path class="st1" d="M128.2,287.3c-0.2-6.1-1.9-12.2-6.1-16.7c-2.9-3.1-8.2-8.5-12.7-8.7c-1.9-0.1-3.7,0.6-5.3,1.7
		c0,0-0.1,0-0.1-0.1c-6.6-2.9-14.8-0.6-18.3,5.5c-11.3,7.1-14.5,24.7-6.7,35.7c4.3,6.1,12,11.8,19.7,12.3c4.2,0.3,8.1-1.1,11.4-3.5
		c0.5,0.4,1,0.7,1.8,0.9C125.3,316.7,128.5,296.5,128.2,287.3z"/>
	<path class="st1" d="M72.1,341.7c-2.4-3.3-5.3-4.6-8-4.6c-0.6-0.8-1.2-1.6-1.8-2.3c-1.5-1.8-3.2-1.7-4.7-0.7
		c-0.6-1.4-1.5-2.6-3-3.5c-2-1.2-3.9-0.4-5.4,1.1c-1.7-1.5-4.8-0.1-6.7,2c-0.6-0.2-1.3-0.3-2.1-0.1c-12.1,2.2-19,16-19.8,27.2
		c-0.7,10.6,3.7,21,12.3,27.3c0.7,0.5,1.5,0.5,2.3,0.3c0.2,1.1,0.7,2.2,1.4,3c4.3,4.9,15.6,1.9,20.9,0.4c2-0.6,3.8-2.2,5-4.1
		c8.5,0,13-13,14.4-19.7C78.6,359.4,77.5,349,72.1,341.7z"/>
</g>
<g id="Layer_5">
	<g class="st3">
		<path class="st4" d="M185.4,136.7c-1.9,10.2-2.1,26.3,6.4,33.9c3.6,3.3,9.7,4.5,14.4,5.4c5.9,1.2,11.5,1,16.9-1.8
			c3.6-1.8,5.4-11.5-0.1-8.7c-4.2,2.1-8.7,1.7-13.2,0.8c-4-0.8-9.5-1.7-12.5-4.7c-6.2-6.2-6-19.1-4.5-26.9c0.4-2-0.4-4.1-2.8-3.8
			C187.7,131.4,185.8,134.6,185.4,136.7L185.4,136.7z"/>
	</g>
	<g class="st3">
		<path class="st4" d="M234.1,196.2c-6.8,9.9-9.4,22.6-4.1,33.8c5.1,10.8,16.8,17.2,28.6,16.4c4.1-0.3,7.9-9.9,3.6-9.6
			c-8.8,0.6-17.6-2.9-23-10.1c-5.2-7-6.3-17.6-1.2-25c1.1-1.6,3-4.9,1.3-6.7C237.7,193.2,235.2,194.6,234.1,196.2L234.1,196.2z"/>
	</g>
	<g class="st3">
		<path class="st4" d="M288.5,267.9c-7.2,10.8-9.6,25.5-1.9,36.7c7.1,10.4,23.1,14,34.5,9.1c3.7-1.6,5.6-11.1-0.1-8.7
			c-8.4,3.6-21.5-0.1-27-7.2c-6.4-8.1-5.5-18.5,0-26.8c1-1.5,1.9-5-0.1-6.1C291.7,263.7,289.5,266.5,288.5,267.9L288.5,267.9z"/>
	</g>
	<g class="st3">
		<path class="st4" d="M341.7,336.5c-11.7,8.1-14.9,23.3-6.6,35.2c7.8,11.1,22.6,17.5,35.3,11.6c3.7-1.7,5.5-11.3-0.1-8.7
			c-8.1,3.7-17.6-0.1-23.9-5.6c-6-5.2-13.5-17.7-4.6-23.9c2-1.4,4-3.9,3.7-6.4C345.3,336.7,343.7,335.1,341.7,336.5L341.7,336.5z"/>
	</g>
	<path class="st5" d="M291.5,371.8c-2.3-0.5-4.4,2.8-5.1,4.5c0.1-0.1,0-0.1-0.2-0.1c-0.1-1-0.7-1.7-2-1.7c-8.7-0.4-17.9-1-23.7-8.4
		c-5.2-6.7-5.6-16.1,1.1-22c1.6-1.4,3.5-4.5,2.6-6.8c-0.9-2.2-3.1-1.9-4.7-0.5c-8,7-12.6,18.4-9.7,28.9c-1.1,1.5-1.5,3.5-1.3,5.3
		c2.6,18.7,37.1,23.6,44.4,6C293.7,375.1,293.8,372.3,291.5,371.8z"/>
	<g class="st3">
		<path class="st4" d="M216.4,261.4c-12.5,7.9-20.1,24.8-14.2,39.1c4.9,11.8,24.6,24.9,35.7,13.2c3.8-3.9,0.9-10.5-3.9-5.5
			c-0.6,0.7-5.6-0.1-6.5-0.3c-2.5-0.4-5-1.3-7.2-2.5c-4.4-2.3-8.1-5.8-10.4-10.2c-4.5-8.8-1.9-20,6.5-25.3c2-1.3,4-3.9,3.7-6.4
			C220.1,261.5,218.5,260.1,216.4,261.4L216.4,261.4z"/>
	</g>
	<g class="st3">
		<path class="st4" d="M143.8,195.2c-8.9,10.9-12.9,26.2-5.8,39.1c6.8,12.3,22.6,16.3,34.3,8.4c2-1.3,4-3.9,3.7-6.4
			c-0.2-2-1.8-3.6-3.9-2.2c-8.6,5.9-20,3.2-26-5.1c-6.3-8.8-5.1-20,1.6-28.2c1.2-1.5,2.9-4.9,1.3-6.7
			C147.4,192.2,145.1,193.7,143.8,195.2L143.8,195.2z"/>
	</g>
	<path class="st5" d="M107.7,309.7c-3.7-0.9-7.5-2-11.1-3.6c-2.8-2-5-4.8-7-8.9c-1.9-3.8-4.5-8.1-3.8-12.4c0.6-4,3.5-8.3,6.9-10.5
		c2-1.3,4-3.9,3.7-6.4c-0.2-2.1-1.8-3.6-3.9-2.2c-1.1,0.7-2.2,1.5-3.2,2.4c-0.7-0.1-1.6,0.2-2.8,1c-8.8,6.3-13.6,18.4-10.9,29
		c2,7.6,7.4,12.6,14,16c4.1,3.5,9,4.6,14.5,5.1C108,319.7,112.5,310.8,107.7,309.7z"/>
	<g class="st3">
		<path class="st4" d="M42.4,333.1c-17.8,5.1-25.8,25.3-17.9,41.6c8,16.4,29,22.1,41.7,7.5c3.6-4.1,0.7-10.7-3.9-5.5
			c-8.6,9.8-23.3,2.6-29.2-6.3c-6.8-10.3-5.7-24.1,7.5-27.9C44.3,341.5,47.4,331.7,42.4,333.1L42.4,333.1z"/>
	</g>
	<g class="st3">
		<path class="st6" d="M135.2,339.7c-9.6,10.2-12.1,26.8-2.6,37.9c9.6,11.3,25.3,10.6,37.8,5c3.7-1.7,5.5-11.2-0.1-8.7
			c-9,4.1-20.5,4.8-28.6-1.8c-8.4-6.8-10.1-19-2.5-27C142.8,341.2,140,334.6,135.2,339.7L135.2,339.7z"/>
	</g>
	<g class="st3">
		<g>
			<path class="st6" d="M530.9,346.5c-3.2,11.7-3.6,26.7,7.2,34.8c4.8,3.6,11.9,4.6,17.7,5.1c6.9,0.6,13.4-0.7,18.8-5.4
				c1.6-1.4,3.5-4.5,2.6-6.8c-0.9-2.2-3.1-1.9-4.7-0.5c-4.4,3.9-10.4,3.5-15.9,2.7c-4.6-0.7-9.5-1.4-13.2-4.3
				c-8.5-6.6-7.6-18.3-5.1-27.6c0.5-2-0.6-4.1-2.8-3.8C533,341.2,531.5,344.4,530.9,346.5L530.9,346.5z"/>
		</g>
	</g>
	<path class="st7" d="M431.9,472.1c-3.1,0.7-6.4-0.2-8.7-2.4c-1.1-1-1.8-2.4-2.2-3.8c-0.2-0.7-0.3-1.3-0.3-2.1c0-0.1,0-0.3,0.1-0.4
		c1.2-1.8,1.9-4,0.8-6c0-0.1-0.1-0.2-0.1-0.2c-0.7-1.3-2.3-0.8-3.3-0.4c-6,2.7-5.8,12.9-3.4,17.8c2.8,5.8,9.3,8.2,15.4,6.9
		C433.9,480.7,437.1,470.9,431.9,472.1z"/>
	<g class="st3">
		<path class="st4" d="M439,334.6c-13.2,7.9-20.4,25.2-13.4,39.6c7.3,15.1,26,19.2,39.7,10c2-1.3,4-3.9,3.7-6.4
			c-0.2-2-1.8-3.6-3.9-2.2c-9.7,6.5-22.9,4.9-30.1-4.5c-6.9-9-6-21.7,4.2-27.8c2-1.2,4-4,3.7-6.4C442.6,334.7,441.1,333.4,439,334.6
			L439,334.6z"/>
	</g>
	<path class="st5" d="M519.6,304.1c-1.3,0.2-2.4,1.2-3.2,2.5c-0.5,0.1-1.5,0.5-1.8,0.6c-1.5,0.3-3,0.4-4.5,0.3
		c-2.6-0.1-5.2-0.6-7.6-1.5c-4.7-1.7-8.6-4.9-11.5-8.9c-2.9-4.1-5.5-10-4.6-15.2c0.8-5,5.7-8.1,10.1-9.8c2.3-0.9,4.2-3.1,4.6-5.7
		c0.3-1.6-0.4-4.7-2.8-3.8c-17,6.6-24.8,24.3-15,40.5c4.3,7.2,11.7,12.3,20,13.6c7.8,1.2,16.8-0.3,19.1-8.9
		C522.9,305.8,521.8,303.8,519.6,304.1z"/>
	<g class="st3">
		<path class="st4" d="M549.2,190.8c-10.8,10.5-21,29.2-9.7,43.1c10.8,13.4,31.9,12.6,45.4,4.1c2-1.3,4-3.9,3.7-6.4
			c-0.2-2.1-1.8-3.5-3.9-2.2c-10.4,6.6-24.6,7.4-34.9,0.1c-12-8.5-7.5-22.7,1.5-31.4c1.6-1.5,3.5-4.4,2.6-6.8
			C553,189.2,550.7,189.3,549.2,190.8L549.2,190.8z"/>
	</g>
	<path class="st5" d="M628.3,160.8c-8,2.8-16.6,2.1-23.7-2.7c-3.5-2.4-8.1-7.4-9.9-12.4c0.4-5.7,4-11.3,8.8-14.9
		c3.6-2.7,3.4-11.5-2.1-7.3c-3.4,2.6-6.6,6.1-9.1,10c-2.1,0.2-3.7,2.8-4.4,4.4c-1.1,2.4-1.5,4.9-1.4,7.4c-0.8,7.5,0.5,15.8,5.1,21.6
		c2.4,3,5.7,4.2,9.2,5.3c6.1,3.5,13.3,5.4,19.6,5.7c2.9,0.1,6.1-4.5,5.6-7.4c0.2-0.1,0.3-0.1,0.5-0.2c2.3-0.8,4.2-3.2,4.6-5.7
		C631.3,163,630.7,160,628.3,160.8z"/>
	<path class="st5" d="M675.4,233.3c-0.1-0.1-0.2-0.2-0.3-0.4c-0.9-1-2.2-1.1-3.3-0.4c-0.1,0.1-0.2,0.1-0.3,0.2
		c-0.5,0.4-1.1,0.8-1.6,1.3c-9.2,3.1-21.8,1.6-28.1-5.9c-3.5-4.2-4.2-9.7-4.1-15c0.2-5.6,2.9-8.4,6.8-11.2c2.3,1.1,6.7-3.5,6.3-6.6
		c-0.1-0.5-0.1-1-0.2-1.4c-0.2-2-1.8-3.6-3.9-2.2c-6.8,4.4-13.1,9.3-15.5,17.4c-2.2,7.6-1.8,17.8,2.3,24.6
		c3.9,6.5,11.4,10.1,18.7,11c7,0.8,18.2,0.4,22.6-6C675.7,237.6,676.6,234.6,675.4,233.3z"/>
	<g class="st3">
		<path class="st4" d="M609.7,266.5c-5,6.3-9.6,14.1-10.6,22.2c-1,7.8,3.1,13.4,8.9,18.1c11,8.9,33.6,15.4,40.8-1.6
			c0.8-1.8,0.8-4.6-1.5-5.1c-2.3-0.5-4.4,2.8-5.1,4.5c-0.4,0.9-5.5,1.4-6.6,1.5c-2.6,0.2-5.2,0-7.8-0.7c-5.1-1.2-9.8-4.1-13.8-7.3
			c-3.8-3-7.7-6.7-7.3-12c0.4-5.2,3.8-10.4,7-14.3c1.2-1.5,2.9-4.9,1.3-6.7C613.3,263.5,610.9,265,609.7,266.5L609.7,266.5z"/>
	</g>
	<g class="st3">
		<path class="st4" d="M697.7,263.7c-10.6,10.7-20.5,26.5-11.1,41.2c7.7,12.1,24.6,14.2,36.2,6.7c2-1.3,4-3.9,3.7-6.4
			c-0.2-2.1-1.8-3.5-3.9-2.2c-8.2,5.2-19.7,4.6-26.7-2.4c-3.4-3.4-5.8-8.2-5.7-13.1c0.2-6.3,5.3-12.2,9.5-16.4
			c1.6-1.6,3.5-4.4,2.6-6.8C701.5,262.1,699.2,262.2,697.7,263.7L697.7,263.7z"/>
	</g>
	<path class="st5" d="M780.7,371.8c-0.9-2.2-3.1-1.9-4.7-0.5c-7,6.3-18.1,5.7-26,1.4c-4.2-2.3-9.2-7.7-10.5-13.2
		c1.1-1,1.9-2.3,2.2-3.7c0.3-1.8,0.7-3.5,1.2-5.1c1.3-3.9,3.3-7.3,6.2-10.5c3.7-4,0.8-10.6-3.9-5.5c-2.7,2.9-4.9,6.1-6.6,9.5
		c-8.6,9.9-9.1,24.9,1.3,34.1c10.5,9.3,27.7,9.7,38.1,0.2C779.7,377.1,781.6,374.1,780.7,371.8z"/>
	<path class="st5" d="M698,373c-4,0.7-8,1.8-12,2.8c-1-0.7-2.5-0.5-3.8,0.8c-0.1,0-0.1,0-0.2,0c-5.8-0.2-11.6-1.9-15.8-5.3
		c-7.4-6-10.6-17.2-4.9-25.4c2.5-2.9,3.6-8.7-0.6-7.9c-5.7,1.1-8.8,11.9-9.6,16.8c-0.1,0.9-0.2,1.9-0.3,2.8
		c-1.1,1.5-1.5,3.5-1.3,5.3c1.5,9.6,4.4,19.3,14.5,22.6c3,1,6,1.3,9,1.2c2.8,0.4,5.5,0.3,7.9-0.6c5.7-0.1,11.4-1.6,16.2-4.2
		C699.8,380.6,703.5,372.1,698,373z"/>
</g>
<g id="Layer_1">
</g>
<g id="Layer_6">
	<g>
		<g>
			<path class="st11" d="M232,132.3c-5.9-8.9-17.6-12-27.7-10.3c-11.4,1.9-20.8,11-23.1,22.3c-4.9,24.9,26.7,45.4,46.6,28.3
				c12-10.3,12.4-27.6,4.4-40.3c-1.3-2.1-4.6-0.2-3.3,1.9c7.3,12.5,6.9,30-7,37.9c-12.3,6.9-29,0.4-34.9-11.9
				c-5.6-11.8-0.6-26.1,11-32c10.1-5.2,24.2-2.9,31.3,6.2C230.5,136,233.1,133.9,232,132.3L232,132.3z"/>
		</g>
	</g>
	<g>
		<g>
			<path class="st11" d="M274.9,197.7c-7.2-8.7-20.6-10.4-30.8-7c-11.4,3.7-19.5,14.4-20.2,26.4c-1.5,27,35.8,43,53,21
				c9.6-12.3,7.6-28.7-1.7-40.4c-1.3-1.7-4.3,0.6-3,2.3c8.5,11.5,10.6,27.7-0.7,38.3c-11.1,10.4-30.5,6.9-38.9-5.2
				c-7.8-11.2-5.4-26.9,5.7-35.1c9.9-7.3,25.7-7,34.3,2.1C274,201.9,276.3,199.4,274.9,197.7L274.9,197.7z"/>
		</g>
	</g>
	<g>
		<g>
			<path class="st11" d="M151,190.2c-11.2,2.8-18.6,14.3-19.9,25.3c-1.5,11.9,4.7,23.9,15.2,29.6c11.6,6.3,26.4,3.9,35.7-5.4
				c9.2-9.2,12.5-23.3,6-34.9c-7.3-13.2-22.7-18.1-36.9-14.8c-2.4,0.6-1.4,4.2,1,3.7c14.1-2.7,29.7,2.6,34.4,17.5
				c4.5,14.2-6.3,29.8-20.3,33c-13.6,3.1-27.5-5.4-30.7-19c-3-12.3,4-27.4,16.4-31.5C154,192.9,153.2,189.6,151,190.2L151,190.2z"/>
		</g>
	</g>
	<g>
		<g>
			<path class="st11" d="M77.5,274.5c-6.9,9.1-5.1,23,1.2,31.9c6.6,9.4,18.9,14.1,30.1,11.2c24.6-6.4,29.7-43.8,5.4-54.2
				C101,257.8,86.4,263,77.8,274c-1.5,1.9,1.1,4.6,2.7,2.7c8.6-10.1,22.5-15.7,34.8-8.4c12,7.1,14.2,24.5,6.6,35.6
				c-7.5,11-22.7,13.9-33.8,6.4c-10.5-7.1-14.6-23.2-7.6-34C81.8,274.4,78.8,272.8,77.5,274.5L77.5,274.5z"/>
		</g>
	</g>
	<g>
		<g>
			<path class="st11" d="M246.5,267.6c-7.9-8.6-21.7-9.5-32.1-5.3c-11.2,4.6-18.8,16-18.5,28.1c0.7,26.6,37.5,40.7,54.1,18.5
				c9.6-12.8,6.9-29.8-3.3-41.3c-1.7-1.9-4.3,0.8-2.7,2.7c9.3,11.4,11.8,28.6,0.1,39.4C233,320,213.6,316.8,205,305
				c-7.8-10.6-6.3-25.6,3.5-34.5c9.4-8.5,26.1-9.4,35.6-0.5C245.7,271.6,248,269.2,246.5,267.6L246.5,267.6z"/>
		</g>
	</g>
	<g>
		<g>
			<path class="st11" d="M305.2,260.1c-12.1,0.2-22.3,10.5-25.6,21.6c-3.5,11.4,0.7,24.3,10.1,31.6c21.8,16.8,56.6-5.2,47.2-32.3
				c-4.7-13.5-17.7-21.1-31.6-21.1c-2.5,0-2.5,3.7,0,3.8c13.2,0.5,25.6,7.6,28.7,21.3c3.3,14.8-9.6,29-24,30.3
				c-14,1.2-26.6-9.4-27.7-23.4c-1-13.1,9.3-27.2,22.9-28.4C307.4,263.4,307.5,260,305.2,260.1L305.2,260.1z"/>
		</g>
	</g>
	<g>
		<g>
			<path class="st11" d="M162.8,334.7c-10-5.1-22.6-1.4-30.6,5.9c-8.9,8.1-11.5,21.6-6.5,32.5c11.1,24,50.3,20.7,54.6-6.3
				c2.1-13.5-5.5-26-17.3-32.2c-2.2-1.1-4.1,2.1-1.9,3.3c11.1,6.5,18.7,18.4,14.7,31.6c-4.3,13.9-21.9,19.9-34.6,13.8
				c-12.1-5.7-17.5-20.6-11.6-32.7c5.5-11.2,20.2-17.7,31.9-12.8C163.3,338.7,164.6,335.6,162.8,334.7L162.8,334.7z"/>
		</g>
	</g>
	<g>
		<g>
			<path class="st11" d="M75.4,351.2c-3.2-10.8-14.4-17.5-25.1-18.7c-12-1.3-24.1,5.2-29.4,16.1c-5.6,11.5-3.1,25.7,6.2,34.6
				c9.1,8.7,22.7,12,34,5.9c13.6-7.3,18.5-23.4,14.5-37.8c-0.7-2.4-4.3-1.4-3.7,1c3.3,14-1.5,30.1-16.5,35
				c-14,4.6-29.6-5.8-32.9-19.6c-3.2-13.1,4.7-26.6,17.7-30.4c12-3.5,27.3,2.8,31.9,14.9C72.8,354.2,76,353.4,75.4,351.2L75.4,351.2
				z"/>
		</g>
	</g>
	<g>
		<g>
			<path class="st11" d="M296.4,382.6c9-7.4,10.7-21.3,7-31.8c-4-11.4-14.9-19.5-27.1-19.9c-26.8-0.8-42.7,35.9-21,53.3
				c12.4,9.9,29.1,8,41.1-1.5c1.7-1.3-0.6-4.3-2.3-3c-11.8,8.7-28.7,10.6-39.3-1.4c-10-11.4-6.1-30.6,6-38.9
				c11.3-7.8,27.2-5.2,35.4,5.9c7.3,10,7,26-2.2,34.7C292.3,381.8,294.7,384,296.4,382.6L296.4,382.6z"/>
		</g>
	</g>
	<g>
		<g>
			<path class="st11" d="M378.7,341.7c-5.9-8.9-17.6-12-27.7-10.3c-11.4,1.9-20.8,11-23.1,22.3c-4.9,24.9,26.7,45.4,46.6,28.3
				c12-10.3,12.4-27.6,4.4-40.3c-1.3-2.1-4.6-0.2-3.3,1.9c7.3,12.5,6.9,30-7,37.9c-12.3,6.9-29,0.4-34.9-11.9
				c-5.6-11.8-0.6-26.1,11-32c10.1-5.2,24.2-2.9,31.3,6.2C377.2,345.3,379.8,343.3,378.7,341.7L378.7,341.7z"/>
		</g>
	</g>
	<g>
		<g>
			<path class="st11" d="M189.2,168.8c-8.4,6-16.7,15.5-19.7,25.5c-0.6,2,2.2,3.1,3.3,1.4c2.6-4.3,4.5-8.8,7.4-12.8
				c3.1-4.4,6.8-8.2,10.6-12C191.8,169.9,190.4,167.9,189.2,168.8L189.2,168.8z"/>
		</g>
	</g>
	<g>
		<g>
			<path class="st11" d="M225.7,170.3c3,4.3,6.2,8.4,9,12.7c2.9,4.4,5.1,9.2,8.1,13.4c1.2,1.7,4.4,0.7,3.5-1.5
				c-3.7-9.6-11.1-19.2-18.2-26.6C227,167.1,224.7,168.8,225.7,170.3L225.7,170.3z"/>
		</g>
	</g>
	<g>
		<g>
			<path class="st11" d="M145.8,240.5c0-0.1,0-0.2,0-0.3c0.1-0.5,0-1.2-0.6-1.5c-1.2-0.5-1.7-0.3-2.8,0.2c-3.5,1.6-6.9,6.1-9.5,8.8
				c-5.5,5.7-10.8,11.8-15.2,18.4c-1.4,2.1,1.9,3.9,3.3,2c3.7-5,7.4-9.9,11.5-14.6c1.7-2,3.5-3.9,5.3-5.7c1.1-1.1,5.3-6.6,6.8-6.6
				c-0.4-0.4-0.9-0.9-1.3-1.3c0,0.1,0,0.2,0,0.3C143.5,241.4,145.6,242,145.8,240.5L145.8,240.5z"/>
		</g>
	</g>
	<g>
		<g>
			<path class="st11" d="M240.7,240.7c-4.3,7.7-7.9,15.1-9.9,23.8c-0.6,2.5,3.2,3.5,3.8,1c1.9-8.1,4.4-16.1,8.1-23.7
				C243.4,240.5,241.4,239.3,240.7,240.7L240.7,240.7z"/>
		</g>
	</g>
	<g>
		<g>
			<path class="st11" d="M82.8,309.2c-8.4,8.4-17.2,20.5-20.3,32.1c-0.5,2,2.4,3.3,3.4,1.4c2.9-5.1,5-10.7,8.1-15.8
				c3.3-5.5,7.2-10.4,11.1-15.4C86.5,309.9,84.4,307.6,82.8,309.2L82.8,309.2z"/>
		</g>
	</g>
	<g>
		<g>
			<path class="st11" d="M117.3,311.4c5.4,3.8,8.7,12.9,11.7,18.7c1.5,3,2.9,6,4.3,9.1c0.7,1.5,1,2.9,2.8,3.3
				c1.1,0.2,2.2-0.3,2.5-1.4c0-0.1,0-0.2,0.1-0.3c0.2-0.8-0.2-1.8-0.9-2.2c-0.1,0-0.2-0.1-0.3-0.1c-1.2-0.7-2.3,0-2.8,1.1
				c0,0,0,0.1-0.1,0.1c-0.6,1.4,1,2.5,2.2,2.2c0.1,0,0.1,0,0.2,0c-0.8-0.4-1.5-0.9-2.3-1.3c0.1-0.3,0.1-0.7,0.2-1
				c0.8-0.3,1.5-0.6,2.3-0.9c0.7,0.3-1-2.5-1.2-3c-0.8-1.6-1.6-3.3-2.4-4.9c-1.5-3-3.1-5.9-4.8-8.8c-2.6-4.5-5.3-10.2-10.1-12.6
				C117.1,308.3,115.9,310.4,117.3,311.4L117.3,311.4z"/>
		</g>
	</g>
	<g>
		<g>
			<path class="st11" d="M295.2,313.1c-4.6,7.2-8.4,16.8-9.9,25.3c-0.4,2.3,2.7,3.2,3.5,1c2.9-8.4,5.9-16.8,9-25.1
				C298.4,312.6,296,311.8,295.2,313.1L295.2,313.1z"/>
		</g>
	</g>
	<g>
		<g>
			<path class="st11" d="M324.3,308.9c5.4,10.3,10.6,20.6,14.8,31.5c0.9,2.3,4.6,1.3,3.7-1c-4.4-11-9.6-21.9-16.3-31.7
				C325.5,306.4,323.5,307.5,324.3,308.9L324.3,308.9z"/>
		</g>
	</g>
	<g>
		<g>
			<path class="st11" d="M272.6,235.7c4.6,5.3,9.1,10.8,13.3,16.5c3.9,5.3,7.1,11.1,11,16.5c1.3,1.8,3.9,0.3,3-1.7
				c-5.9-12.3-15.9-23.6-25.5-33C273.2,232.9,271.6,234.5,272.6,235.7L272.6,235.7z"/>
		</g>
	</g>
	<g>
		<g>
			<path class="st11" d="M633.6,132.3c-5.9-8.9-17.6-12-27.7-10.3c-11.4,1.9-20.8,11-23.1,22.3c-4.9,24.9,26.7,45.4,46.6,28.3
				c12-10.3,12.4-27.6,4.4-40.3c-1.3-2.1-4.6-0.2-3.3,1.9c7.3,12.5,6.9,30-7,37.9c-12.3,6.9-29,0.4-34.9-11.9
				c-5.6-11.8-0.6-26.1,11-32c10.1-5.2,24.2-2.9,31.3,6.2C632.1,136,634.7,133.9,633.6,132.3L633.6,132.3z"/>
		</g>
	</g>
	<g>
		<g>
			<path class="st11" d="M676.4,197.7c-7.2-8.7-20.6-10.4-30.8-7c-11.4,3.7-19.5,14.4-20.2,26.4c-1.5,27,35.8,43,53,21
				c9.6-12.3,7.6-28.7-1.7-40.4c-1.3-1.7-4.3,0.6-3,2.3c8.5,11.5,10.6,27.7-0.7,38.3c-11.1,10.4-30.5,6.9-38.9-5.2
				c-7.8-11.2-5.4-26.9,5.7-35.1c9.9-7.3,25.7-7,34.3,2.1C675.5,201.9,677.8,199.4,676.4,197.7L676.4,197.7z"/>
		</g>
	</g>
	<g>
		<g>
			<path class="st11" d="M552.5,190.2c-11.2,2.8-18.6,14.3-19.9,25.3c-1.5,11.9,4.7,23.9,15.2,29.6c11.6,6.3,26.4,3.9,35.7-5.4
				c9.2-9.2,12.5-23.3,6-34.9c-7.3-13.2-22.7-18.1-36.9-14.8c-2.4,0.6-1.4,4.2,1,3.7c14.1-2.7,29.7,2.6,34.4,17.5
				c4.5,14.2-6.3,29.8-20.3,33c-13.6,3.1-27.5-5.4-30.7-19c-3-12.3,4-27.4,16.4-31.5C555.5,192.9,554.7,189.6,552.5,190.2
				L552.5,190.2z"/>
		</g>
	</g>
	<g>
		<g>
			<path class="st11" d="M479.1,274.5c-6.9,9.1-5.1,23,1.2,31.9c6.6,9.4,18.9,14.1,30.1,11.2c24.6-6.4,29.7-43.8,5.4-54.2
				c-13.2-5.7-27.9-0.5-36.5,10.5c-1.5,1.9,1.1,4.6,2.7,2.7c8.6-10.1,22.5-15.7,34.8-8.4c12,7.1,14.2,24.5,6.6,35.6
				c-7.5,11-22.7,13.9-33.8,6.4c-10.5-7.1-14.6-23.2-7.6-34C483.3,274.4,480.4,272.8,479.1,274.5L479.1,274.5z"/>
		</g>
	</g>
	<g>
		<g>
			<path class="st11" d="M648.1,267.6c-7.9-8.6-21.7-9.5-32.1-5.3c-11.2,4.6-18.8,16-18.5,28.1c0.7,26.6,37.5,40.7,54.1,18.5
				c9.6-12.8,6.9-29.8-3.3-41.3c-1.7-1.9-4.3,0.8-2.7,2.7c9.3,11.4,11.8,28.6,0.1,39.4c-11.1,10.3-30.4,7.1-39.1-4.7
				c-7.8-10.6-6.3-25.6,3.5-34.5c9.4-8.5,26.1-9.4,35.6-0.5C647.2,271.6,649.6,269.2,648.1,267.6L648.1,267.6z"/>
		</g>
	</g>
	<g>
		<g>
			<path class="st11" d="M706.8,260.1c-12.1,0.2-22.3,10.5-25.6,21.6c-3.5,11.4,0.7,24.3,10.1,31.6C713,330,747.9,308,738.5,281
				c-4.7-13.5-17.7-21.1-31.6-21.1c-2.5,0-2.5,3.7,0,3.8c13.2,0.5,25.6,7.6,28.7,21.3c3.3,14.8-9.6,29-24,30.3
				c-14,1.2-26.6-9.4-27.7-23.4c-1-13.1,9.3-27.2,22.9-28.4C709,263.4,709.1,260,706.8,260.1L706.8,260.1z"/>
		</g>
	</g>
	<g>
		<g>
			<path class="st11" d="M564.4,334.7c-10-5.1-22.6-1.4-30.6,5.9c-8.9,8.1-11.5,21.6-6.5,32.5c11.1,24,50.3,20.7,54.6-6.3
				c2.1-13.5-5.5-26-17.3-32.2c-2.2-1.1-4.1,2.1-1.9,3.3c11.1,6.5,18.7,18.4,14.7,31.6c-4.3,13.9-21.9,19.9-34.6,13.8
				c-12.1-5.7-17.5-20.6-11.6-32.7c5.5-11.2,20.2-17.7,31.9-12.8C564.8,338.7,566.1,335.6,564.4,334.7L564.4,334.7z"/>
		</g>
	</g>
	<g>
		<g>
			<path class="st11" d="M476.9,351.2c-3.2-10.8-14.4-17.5-25.1-18.7c-12-1.3-24.1,5.2-29.4,16.1c-5.6,11.5-3.1,25.7,6.2,34.6
				c9.1,8.7,22.7,12,34,5.9c13.6-7.3,18.5-23.4,14.5-37.8c-0.7-2.4-4.3-1.4-3.7,1c3.3,14-1.5,30.1-16.5,35
				c-14,4.6-29.6-5.8-32.9-19.6c-3.2-13.1,4.7-26.6,17.7-30.4c12-3.5,27.3,2.8,31.9,14.9C474.3,354.2,477.6,353.4,476.9,351.2
				L476.9,351.2z"/>
		</g>
	</g>
	<g>
		<g>
			<path class="st11" d="M698,382.6c9-7.4,10.7-21.3,7-31.8c-4-11.4-14.9-19.5-27.1-19.9c-26.8-0.8-42.7,35.9-21,53.3
				c12.4,9.9,29.1,8,41.1-1.5c1.7-1.3-0.6-4.3-2.3-3c-11.8,8.7-28.7,10.6-39.3-1.4c-10-11.4-6.1-30.6,6-38.9
				c11.3-7.8,27.2-5.2,35.4,5.9c7.3,10,7,26-2.2,34.7C693.8,381.8,696.3,384,698,382.6L698,382.6z"/>
		</g>
	</g>
	<g>
		<g>
			<path class="st11" d="M780.3,341.7c-5.9-8.9-17.6-12-27.7-10.3c-11.4,1.9-20.8,11-23.1,22.3c-4.9,24.9,26.7,45.4,46.6,28.3
				c12-10.3,12.4-27.6,4.4-40.3c-1.3-2.1-4.6-0.2-3.3,1.9c7.3,12.5,6.9,30-7,37.9c-12.3,6.9-29,0.4-34.9-11.9
				c-5.6-11.8-0.6-26.1,11-32c10.1-5.2,24.2-2.9,31.3,6.2C778.7,345.3,781.3,343.3,780.3,341.7L780.3,341.7z"/>
		</g>
	</g>
	<g>
		<g>
			<path class="st11" d="M590.7,168.8c-8.4,6-16.7,15.5-19.7,25.5c-0.6,2,2.2,3.1,3.3,1.4c2.6-4.3,4.5-8.8,7.4-12.8
				c3.1-4.4,6.8-8.2,10.6-12C593.3,169.9,592,167.9,590.7,168.8L590.7,168.8z"/>
		</g>
	</g>
	<g>
		<g>
			<path class="st11" d="M627.3,170.3c3,4.3,6.2,8.4,9,12.7c2.9,4.4,5.1,9.2,8.1,13.4c1.2,1.7,4.4,0.7,3.5-1.5
				c-3.7-9.6-11.1-19.2-18.2-26.6C628.5,167.1,626.2,168.8,627.3,170.3L627.3,170.3z"/>
		</g>
	</g>
	<g>
		<g>
			<path class="st11" d="M547.3,240.5c0-0.1,0-0.2,0-0.3c0.1-0.5,0-1.2-0.6-1.5c-1.2-0.5-1.7-0.3-2.8,0.2c-3.5,1.6-6.9,6.1-9.5,8.8
				c-5.5,5.7-10.8,11.8-15.2,18.4c-1.4,2.1,1.9,3.9,3.3,2c3.7-5,7.4-9.9,11.5-14.6c1.7-2,3.5-3.9,5.3-5.7c1.1-1.1,5.3-6.6,6.8-6.6
				c-0.4-0.4-0.9-0.9-1.3-1.3c0,0.1,0,0.2,0,0.3C545,241.4,547.1,242,547.3,240.5L547.3,240.5z"/>
		</g>
	</g>
	<g>
		<g>
			<path class="st11" d="M642.2,240.7c-4.3,7.7-7.9,15.1-9.9,23.8c-0.6,2.5,3.2,3.5,3.8,1c1.9-8.1,4.4-16.1,8.1-23.7
				C644.9,240.5,643,239.3,642.2,240.7L642.2,240.7z"/>
		</g>
	</g>
	<g>
		<g>
			<path class="st11" d="M484.4,309.2c-8.4,8.4-17.2,20.5-20.3,32.1c-0.5,2,2.4,3.3,3.4,1.4c2.9-5.1,5-10.7,8.1-15.8
				c3.3-5.5,7.2-10.4,11.1-15.4C488,309.9,485.9,307.6,484.4,309.2L484.4,309.2z"/>
		</g>
	</g>
	<g>
		<g>
			<path class="st11" d="M518.8,311.4c5.4,3.8,8.7,12.9,11.7,18.7c1.5,3,2.9,6,4.3,9.1c0.7,1.5,1,2.9,2.8,3.3
				c1.1,0.2,2.2-0.3,2.5-1.4c0-0.1,0-0.2,0.1-0.3c0.2-0.8-0.2-1.8-0.9-2.2c-0.1,0-0.2-0.1-0.3-0.1c-1.2-0.7-2.3,0-2.8,1.1
				c0,0,0,0.1-0.1,0.1c-0.6,1.4,1,2.5,2.2,2.2c0.1,0,0.1,0,0.2,0c-0.8-0.4-1.5-0.9-2.3-1.3c0.1-0.3,0.1-0.7,0.2-1
				c0.8-0.3,1.5-0.6,2.3-0.9c0.7,0.3-1-2.5-1.2-3c-0.8-1.6-1.6-3.3-2.4-4.9c-1.5-3-3.1-5.9-4.8-8.8c-2.6-4.5-5.3-10.2-10.1-12.6
				C518.6,308.3,517.4,310.4,518.8,311.4L518.8,311.4z"/>
		</g>
	</g>
	<g>
		<g>
			<path class="st11" d="M696.7,313.1c-4.6,7.2-8.4,16.8-9.9,25.3c-0.4,2.3,2.7,3.2,3.5,1c2.9-8.4,5.9-16.8,9-25.1
				C699.9,312.6,697.6,311.8,696.7,313.1L696.7,313.1z"/>
		</g>
	</g>
	<g>
		<g>
			<path class="st11" d="M725.8,308.9c5.4,10.3,10.6,20.6,14.8,31.5c0.9,2.3,4.6,1.3,3.7-1c-4.4-11-9.6-21.9-16.3-31.7
				C727,306.4,725.1,307.5,725.8,308.9L725.8,308.9z"/>
		</g>
	</g>
	<g>
		<g>
			<path class="st11" d="M674.1,235.7c4.6,5.3,9.1,10.8,13.3,16.5c3.9,5.3,7.1,11.1,11,16.5c1.3,1.8,3.9,0.3,3-1.7
				c-5.9-12.3-15.9-23.6-25.5-33C674.7,232.9,673.1,234.5,674.1,235.7L674.1,235.7z"/>
		</g>
	</g>
	<g>
		<g>
			<path class="st12" d="M285.3,203.3c10.2,2.9,18.6,7.5,24.1,17c6.1,10.5,5.2,21.3,3.7,32.8c-0.3,2.4,3.3,2.6,4.1,0.5
				c4.1-11.5,1.7-26.6-4.8-36.7c-5.6-8.7-15.8-16.6-26.6-16.6C284,200.3,283.6,202.8,285.3,203.3L285.3,203.3z"/>
		</g>
	</g>
	<g>
		<g>
			<path class="st12" d="M308,240.9c1.6,5.4,3.8,10.6,5.8,15.9c0.6,1.6,2.9,2.2,3.9,0.5c2.6-4.7,5.9-8.1,10.1-11.5
				c1.9-1.5-0.6-4.7-2.6-3.3c-4.7,3.1-8.6,7.7-11.1,12.7c1.3,0.2,2.6,0.3,3.9,0.5c-2.2-5.3-4.3-10.8-6.9-16
				C310.1,238,307.4,239.2,308,240.9L308,240.9z"/>
		</g>
	</g>
	<g>
		<g>
			<path class="st12" d="M256.8,305.2c6.8,3.6,16,3.6,22.8-0.1c1.9-1,0.6-4.2-1.5-3.5c-7.1,2.6-12.8,2.9-20.1,0.8
				C256.3,301.9,255.2,304.4,256.8,305.2L256.8,305.2z"/>
		</g>
	</g>
	<g>
		<g>
			<path class="st12" d="M257.5,304.8c-0.7,1.7,0.7,3.2,1.7,4.4c1,1.3,2.2,2.7,3.6,3.7c1.8,1.2,3.8-1.5,2.3-3c-1-1.1-2.3-2-3.3-3.1
				c-0.9-1-1.7-2.7-3.2-2.7C258.2,304.2,257.7,304.4,257.5,304.8L257.5,304.8z"/>
		</g>
	</g>
	<g>
		<g>
			<path class="st12" d="M257.6,305.1c2.5-0.3,4.9-2.2,7.2-3.3c2.3-1.2,0-5-2-3.4c-1.1,0.8-2.3,1.5-3.4,2.4c-1,0.7-2.2,1.5-2.9,2.6
				C256.1,304,256.7,305.2,257.6,305.1L257.6,305.1z"/>
		</g>
	</g>
	<g>
		<g>
			<path class="st12" d="M154.8,341.5c2.2-22.2,20.3-36,35.5-49.9c1.6-1.5-0.5-4.1-2.3-3c-9.3,5.8-17.6,14.9-24.3,23.5
				c-6.6,8.6-11.7,18.4-12.3,29.4C151.2,343.8,154.6,343.7,154.8,341.5L154.8,341.5z"/>
		</g>
	</g>
	<g>
		<g>
			<path class="st12" d="M183.3,288c2.6-0.2,5.4-0.2,8,0.2c-0.5-0.8-1-1.7-1.4-2.5c-1.1,3.2-2.9,6.8-3.2,10.2
				c-0.2,2.1,2.7,2.6,3.7,1c0.9-1.5,1.3-3.3,1.8-4.9c0.6-1.7,1.1-3.5,1.6-5.2c0.4-1.3-0.7-2.5-2-2.6c-3.1-0.1-5.9,0.2-8.9,0.8
				C181.2,285.4,181.6,288.1,183.3,288L183.3,288z"/>
		</g>
	</g>
	<g>
		<g>
			<path class="st12" d="M189.2,236.3c8.2,7,13.7,15.6,17.1,25.8c0.8,2.3,4.4,1.4,3.7-1c-3.2-10.9-10.1-20.2-19.2-26.8
				C189.5,233.4,188,235.3,189.2,236.3L189.2,236.3z"/>
		</g>
	</g>
	<g>
		<g>
			<path class="st12" d="M218.2,224.1c-6.3,11.4-9.6,24.5-10.6,37.3c-0.2,2.7,4,2.7,4.2,0c1.1-12.7,4.6-24.3,9.5-36
				C222,223.7,219.1,222.5,218.2,224.1L218.2,224.1z"/>
		</g>
	</g>
	<g>
		<g>
			<path class="st12" d="M219.4,223.3c-1.1,0.4-2.3,1-3.4,1.5c-1.1,0.5-2.4,0.9-3.4,1.6c-1.6,1.1-0.6,4,1.4,3.3
				c2.3-0.8,4.6-2.2,6.6-3.5C222.1,225.3,221.2,222.6,219.4,223.3L219.4,223.3z"/>
		</g>
	</g>
	<g>
		<g>
			<path class="st12" d="M218.6,225.2c0.4,3,1.1,6,1.6,9c0.4,2.2,4,1.3,3.4-0.9c-0.8-2.9-1.5-5.9-2.4-8.8
				C220.7,222.8,218.4,223.5,218.6,225.2L218.6,225.2z"/>
		</g>
	</g>
	<g>
		<g>
			<path class="st12" d="M188.3,235.7c0.3,1.6,0.8,3.3,1.3,4.9c0.4,1.6,0.8,3.1,1.5,4.6c0.9,1.9,3.5,0.5,3.2-1.3
				c-0.3-1.6-1-3.2-1.6-4.7c-0.6-1.5-1.1-3.1-1.8-4.5C190.1,233.2,188.1,234.3,188.3,235.7L188.3,235.7z"/>
		</g>
	</g>
	<g>
		<g>
			<path class="st12" d="M190.6,236.6c0.4-0.4,1.8-0.1,2.3,0c1,0.2,2,0.7,3,1c2,0.6,3.8,0.7,5.4-0.6c1.2-1,0.2-3.3-1.3-3.1
				c-1.2,0.1-2.2,0.2-3.4-0.1c-1.1-0.3-2.1-0.6-3.2-0.8c-2.2-0.2-3.2,0.5-4.6,2C187.8,236,189.4,237.7,190.6,236.6L190.6,236.6z"/>
		</g>
	</g>
	<g>
		<g>
			<path class="st12" d="M139.4,194.5c2-10.3,4.4-19.1,11.3-27.3c6.9-8.3,15.8-14.7,24.7-20.5c2.3-1.5,0.1-5.1-2.1-3.6
				c-9.8,7-19.7,13.8-27,23.4c-5.8,7.6-11.1,18.2-9.3,28C137.3,195.6,139.2,195.6,139.4,194.5L139.4,194.5z"/>
		</g>
	</g>
	<g>
		<g>
			<path class="st12" d="M168.8,143.9c2.5,1.3,5.3,1.9,7.8,3c-0.2-0.9-0.5-1.8-0.7-2.7c-0.9,1.3-1.8,2.7-2.6,4
				c-0.8,1.3-1.8,2.5-2.1,4c-0.4,1.9,1.7,3,3.1,1.8c1.2-1,1.8-2.4,2.6-3.7c0.8-1.4,1.7-2.7,2.5-4.1c0.6-1.1,0.1-2.6-1.2-2.9
				c-2.7-0.6-5.4-1.7-8.2-2.2C168.4,140.8,167.1,143,168.8,143.9L168.8,143.9z"/>
		</g>
	</g>
	<g>
		<g>
			<path class="st12" d="M132.1,204.1c-12.7,0.7-26.2,9.8-33.9,19.5c-8.5,10.6-11.9,24.7-8.4,37.9c0.7,2.6,4.7,1.5,4-1.1
				c-3.3-12.7,0.5-26.1,9-35.9c3.9-4.5,8.7-8.2,13.8-11.1c5.2-2.9,10.8-4.3,16.2-6.6C134.2,206.2,133.5,204,132.1,204.1L132.1,204.1
				z"/>
		</g>
	</g>
	<g>
		<g>
			<path class="st12" d="M84.6,252c1.6,3,4.4,5.6,6.4,8.3c0.8,1.1,2.2,1.1,3,0c2.4-3.5,4.3-7.6,6.2-11.4c1.1-2.3-2.2-4.3-3.4-2
				c-2.1,3.9-4.4,7.9-6,12.1c1-0.3,2-0.5,2.9-0.8c-2.6-2.5-4.7-5.7-7.6-7.8C85.2,249.7,84.2,251.1,84.6,252L84.6,252z"/>
		</g>
	</g>
	<g>
		<g>
			<path class="st15" d="M502.8,181.8c2.4,5.3,6,10.1,8.4,15.5c2.7,6,5,12.2,7.1,18.5c4.3,12.3,7.7,24.9,11,37.5
				c6.6,25.4,13.5,51.1,14.4,77.5c0.1,2.8,4.4,2.8,4.3,0c-0.9-27.1-7.9-53.5-14.8-79.6c-3.4-12.9-7.1-25.8-11.7-38.3
				c-2.2-5.9-4.4-11.8-7.2-17.5c-2.5-5.2-5.3-11.3-9.7-15C503.6,179.6,502.3,180.6,502.8,181.8L502.8,181.8z"/>
		</g>
	</g>
	<g>
		<g>
			<path class="st15" d="M501.9,181.1c0.2,6.7,0.5,13.6,1.9,20.2c0.5,2.3,4.5,1.8,4.2-0.6c-0.8-6.6-1.8-13-2.1-19.6
				C505.8,178.6,501.8,178.5,501.9,181.1L501.9,181.1z"/>
		</g>
	</g>
	<g>
		<g>
			<path class="st15" d="M504.3,182.8c0,0,12,9.5,13.2,10.4c2.2,1.7,4.3-2,2.2-3.7c-4.1-3.2-8.4-6.8-12.9-9.4
				c-1.9-1.1-5.3-0.8-4.5,2.2C502.5,183.1,503.7,183.6,504.3,182.8L504.3,182.8z"/>
		</g>
	</g>
	<g>
		<g>
			<path class="st16" d="M458.8,187.2c-3.4,27.9,11.1,53.9,24.5,77.2c1.4,2.5,5.3,0.2,3.9-2.3c-13.3-23.3-26.2-47.2-24.8-74.9
				C462.4,184.9,459,185,458.8,187.2L458.8,187.2z"/>
		</g>
	</g>
	<g>
		<g>
			<path class="st16" d="M470.9,255.8c3.7,2.7,7.8,5.2,11.2,8.2c1.1,1,3.3,0.8,3.6-0.9c0.7-4.3,1.4-8.7,2.1-13.1
				c0.5-2.8-3.9-4-4.3-1.2c-0.7,4.4-1.3,8.7-1.9,13.1c1-0.4,2.1-0.8,3.1-1.3c-4.3-2.2-8.1-5.2-12.1-7.7
				C470.8,251.8,469.3,254.6,470.9,255.8L470.9,255.8z"/>
		</g>
	</g>
	<g>
		<g>
			<path class="st16" d="M539.3,151.4c9.2,10.3,15.9,21.5,21.8,33.9c1,2,4.5,0.6,3.6-1.5c-5.1-12.9-13.4-24.8-23.1-34.7
				C540.1,147.5,537.9,149.8,539.3,151.4L539.3,151.4z"/>
		</g>
	</g>
	<g>
		<g>
			<path class="st16" d="M552.3,177.2c3.3,3.6,6.9,6.4,11,9.2c1.3,0.9,2.7-0.3,2.8-1.6c0.3-3.4,1.1-6.7,1.6-10.1
				c0.3-2.3-2.9-2.2-3.7-0.5c-1.3,3.2-1.6,7.2-1.7,10.6c0.9-0.5,1.9-1.1,2.8-1.6c-4.1-1.9-7.8-4.7-11-7.7
				C552.9,174.2,551.2,176,552.3,177.2L552.3,177.2z"/>
		</g>
	</g>
	<g>
		<g>
			<path class="st16" d="M540.1,120.5c14.9-4.2,29-10.1,44.4-12.7c13.8-2.3,27.9-2.1,41.2,2.5c11.7,4.1,22.5,11.5,28.8,22.4
				c8,14,9.1,31.7,7.2,47.4c-0.4,2.9,4.2,2.9,4.5,0c1.9-15.9,0.6-33.7-7.1-48c-6.1-11.6-16.9-19.8-28.9-24.6
				c-29.3-11.7-63.8-2.1-91.3,10.3C537.4,118.5,538.5,120.9,540.1,120.5L540.1,120.5z"/>
		</g>
	</g>
	<g>
		<g>
			<path class="st16" d="M656,170.9c2.3,5.2,5,10.2,7.4,15.4c0.8,1.6,3.1,1,3.6-0.5c0.9-2.6,1.8-5.2,2.9-7.6c1-2.1,2.2-4.1,3-6.3
				c0.6-1.7-1.9-3.2-3.1-1.8c-3.3,3.9-5.2,9.9-6.6,14.8c1.2-0.2,2.4-0.3,3.6-0.5c-2.8-4.9-5.4-10-8.3-14.9
				C657.5,167.8,655.2,169.3,656,170.9L656,170.9z"/>
		</g>
	</g>
	<g>
		<g>
			<path class="st16" d="M543.2,137.8c4.3,4,9.3,7.3,13.7,11.1c4.5,3.9,8.7,8,12.7,12.3c8.1,8.7,15.4,18.2,21.5,28.4
				c12.5,20.6,20.6,43.8,23.2,67.7c0.3,2.8,4.8,2.8,4.5,0c-2.9-24.5-10.8-48.1-23.6-69.2c-6.2-10.3-13.5-19.9-21.7-28.7
				c-8.1-8.6-18-18.6-28.8-23.8C543.5,135.2,542.1,136.8,543.2,137.8L543.2,137.8z"/>
		</g>
	</g>
	<g>
		<g>
			<path class="st16" d="M607.2,245.9c-0.1,0-0.1,0-0.2,0c0.3,0.3,0.7,0.5,1,0.8c0-0.1,0-0.2-0.1-0.3c-0.2,0.4-0.3,0.8-0.5,1.2
				c0.1,0,0.1-0.1,0.2-0.1c-0.4,0-0.8,0-1.2,0c1,0.5,1.7,2,2.4,2.9c0.9,1.2,1.9,2.3,2.8,3.5c0.9,1.2,1.8,2.3,2.7,3.5
				c0.6,0.7,1,1.3,1.9,1.5c0.9,0.2,1.6-0.1,2.1-0.9c0.4-0.6,0.4-1.2,0.2-1.8c-0.2-0.9-1-1.3-1.8-1.4c-0.1,0-0.1,0-0.2,0
				c-2.1-0.2-2.6,3.3-0.5,3.7c0.1,0,0.1,0,0.2,0c-0.4-0.4-0.9-0.9-1.3-1.3c0,0.1,0,0.1,0,0.2c0.1-0.5,0.1-1,0.2-1.5
				c0,0.1-0.1,0.1-0.1,0.2c0.7-0.3,1.4-0.6,2.1-0.9c0.3,0.3,0.3,0.3,0-0.1c-0.3-0.3-0.6-0.6-0.8-0.9c-0.6-0.6-1.1-1.2-1.7-1.8
				c-1-1.1-2-2.2-3-3.3c-1.3-1.4-2.8-4.2-5-3.8c-0.5,0.1-0.8,0.7-0.9,1.1c0,0.4,0.1,0.6,0.3,1c0.3,0.4,0.7,0.5,1.2,0.5
				c0.1,0,0.1,0,0.2,0C608.6,247.7,608.3,245.9,607.2,245.9L607.2,245.9z"/>
		</g>
	</g>
	<g>
		<g>
			<path class="st16" d="M619.9,242c-1.2,4.7-1.3,9.7-2.6,14.4c1.4,0.2,2.9,0.4,4.3,0.6c0-0.3-0.1-0.7-0.1-1c-0.2-2.1-3.4-3-4-0.5
				c-0.1,0.3-0.2,0.7-0.2,1c-0.7,3.1,3.9,3.8,4.3,0.6c0.6-4.8,1.8-9.8,1.3-14.6C622.8,240.8,620.4,240.2,619.9,242L619.9,242z"/>
		</g>
	</g>
	<g>
		<g>
			<path class="st16" d="M540.5,119.1c33.3-14.7,69-26.7,105.1-14.6c35,11.8,52.1,44.5,57.8,79c1.7,10.5,2.6,21.2,3.2,31.8
				c0.6,11,1.2,22.1-1,33c-0.6,2.9,3.8,4.1,4.4,1.2c2-9.8,1.9-19.6,1.4-29.5c-0.5-10.6-1.2-21.1-2.6-31.6
				c-2.5-18.1-7.3-36.2-16.8-52c-19-31.4-54.7-44.6-90.3-40.8c-21.9,2.3-43.6,10-62.9,20.6C536.9,117.4,538.6,120,540.5,119.1
				L540.5,119.1z"/>
		</g>
	</g>
	<g>
		<g>
			<path class="st16" d="M699.7,239.7c1.7,4.7,4.7,9.3,7.1,13.7c0.9,1.6,3,1.4,4,0c2.8-4.1,6.5-8.4,8.5-13c0.9-2-1.5-4.3-3.2-2.5
				c-3.7,3.7-6.3,8.8-9.2,13.2c1.3,0,2.6,0,4,0c-2.7-4.3-5.2-9.1-8.5-12.9C701.2,237,699.1,238.2,699.7,239.7L699.7,239.7z"/>
		</g>
	</g>
	<g>
		<g>
			<g>
				<path class="st11" d="M117.9,27.1c0.9,5.9,2.2,11.7,3.4,17.6c0.3,1.6,3,2.1,3.7,0.5c2.4-5.5,3-11.5,4.8-17.2c-1.3,0-2.6,0-3.9,0
					c2,5.5,3.8,11.1,5.7,16.7c0.6,1.8,3.6,2.2,4.1,0c1.2-5.6,2.3-11.3,3.5-16.9c0.6-2.7-3.6-3.8-4.1-1.1c-1.2,5.6-2.3,11.3-3.4,16.9
					c1.4,0,2.7,0,4.1,0c-2-5.5-4-11-5.9-16.6c-0.6-2-3.2-1.8-3.9,0c-2,5.3-2.2,11.1-4.5,16.3c1.2,0.2,2.5,0.3,3.7,0.5
					c-1.3-5.8-2.6-11.6-4.1-17.4C120.5,24.1,117.6,25,117.9,27.1L117.9,27.1z"/>
			</g>
		</g>
		<g>
			<g>
				<path class="st11" d="M143.2,26.3c-1,2.6-0.5,5.8-0.5,8.6c0,3.2-0.1,6.5-0.2,9.7c-0.1,2.7,4.2,2.7,4.2,0
					c0.1-3.5,0.1-6.9-0.1-10.4c-0.2-2.8-0.1-5.7-1.4-8.2C144.7,25.1,143.5,25.5,143.2,26.3L143.2,26.3z"/>
			</g>
		</g>
		<g>
			<g>
				<path class="st11" d="M148.9,28.8c3.9,0.6,7.9,0.7,11.8,0.8c3,0.1,3-4.8,0-4.6c-3.9,0.2-7.9,0.2-11.8,0.9
					C147.4,26.2,147.4,28.6,148.9,28.8L148.9,28.8z"/>
			</g>
		</g>
		<g>
			<g>
				<path class="st11" d="M154.4,27.3c-0.6,2.7-0.5,5.5-0.6,8.2c-0.1,3-0.5,6.1-0.3,9.1c0.2,2.9,4,2.7,4.4,0
					c0.7-5.3,0.5-12.2-0.8-17.3C156.7,26.1,154.7,26,154.4,27.3L154.4,27.3z"/>
			</g>
		</g>
		<g>
			<g>
				<path class="st11" d="M164.7,26.9c-0.5,5.9,0.3,12.1,0.4,18c0.1,2.7,4.3,2.7,4.2,0c-0.2-6-0.2-12.6-1.7-18.4
					C167.2,24.8,164.8,25.2,164.7,26.9L164.7,26.9z"/>
			</g>
		</g>
		<g>
			<g>
				<path class="st11" d="M167.3,37.6c2.5,0,5-0.1,7.5,0c3.1,0.2,2.7-5.2-0.6-4.3c-2.4,0.6-4.9,0.9-7.3,1.2
					C165,34.7,165.5,37.6,167.3,37.6L167.3,37.6z"/>
			</g>
		</g>
		<g>
			<g>
				<path class="st11" d="M173.7,26.6c-0.3,5.9-0.2,11.8-0.2,17.7c0,2.9,4.6,2.9,4.5,0c-0.2-5.9-0.4-11.8-0.9-17.7
					C176.9,24.4,173.8,24.4,173.7,26.6L173.7,26.6z"/>
			</g>
		</g>
		<g>
			<g>
				<path class="st11" d="M193.1,36c0.3-4.1-0.4-10-5.6-10c-5.6,0-6.6,5.8-6.4,10.4c0.1,3.8,1,10.1,6.1,10c4.8-0.1,6.6-5.7,5.8-9.7
					c-0.3-1.7-3.3-1.8-3.5,0c-0.1,0.8-0.1,1.6-0.2,2.4c-0.1,0.8-0.9,3.2-1.8,3.2c-2.4,0-2.4-5.7-2.3-7.1c0-1.1,0-2.5,0.4-3.5
					c0.6-1.4,0.7-1.7,2.4-0.9c1.5,0.7,1.4,1,1.7,2.5c0.2,1,0.4,2.1,0.5,3.1C190.4,38.3,193,37.6,193.1,36L193.1,36z"/>
			</g>
		</g>
		<g>
			<g>
				<path class="st11" d="M197.5,25.9c-1,5.1-2.8,19.7,5.1,20.6c2.9,0.4,5.4-1.6,6-4.3c1.1-4.8,0.9-10.2,1.3-15.1
					c0.2-2.6-4-2.7-4.1,0c-0.1,2.5-0.3,4.9-0.5,7.4c-0.1,1.2,0.1,9.6-3.6,6.4c-1.1-1-0.9-5.4-1-6.8c-0.1-2.6-0.1-5.1-0.3-7.7
					C200.3,24.8,197.9,24.2,197.5,25.9L197.5,25.9z"/>
			</g>
		</g>
		<g>
			<g>
				<path class="st11" d="M213.8,28.6c-0.9,0.1-0.8,0.2,0.2,0.3c0.5,0.1,1.1,0.2,1.6,0.3c0.9,0.1,1.7,0.2,2.6,0.2
					c2.1,0.1,4.2,0,6.3-0.2c2.8-0.3,2.7-4.7,0-4.3c-2.8,0.4-5.6,0.5-8.4,0.8c-1.3,0.1-3.9-0.2-4.2,1.5
					C211.8,28.3,212.8,29.1,213.8,28.6L213.8,28.6z"/>
			</g>
		</g>
		<g>
			<g>
				<path class="st11" d="M217.4,27.7c-1,5.3-0.6,11.3-0.5,16.7c0.1,2.8,4.3,2.8,4.3,0c-0.1-5.4,0.2-11.4-1-16.7
					C219.9,26.3,217.7,26.3,217.4,27.7L217.4,27.7z"/>
			</g>
		</g>
		<g>
			<g>
				<path class="st11" d="M236.3,26.8c-1.2,2.6-0.7,5.6-0.6,8.5c0.1,3.3,0.1,6.5,0.6,9.8c0.3,2.3,3.8,1.6,3.9-0.5
					c0.1-3.3-0.3-6.6-0.5-9.9c-0.2-2.6,0-5.5-1.4-7.8C237.8,26.2,236.7,26,236.3,26.8L236.3,26.8z"/>
			</g>
		</g>
		<g>
			<g>
				<path class="st11" d="M238.4,28.7c0,0,0.1-0.1,0.1-0.1c-0.4,0.1-0.8,0.2-1.3,0.3c1.7,0.3,5.9-0.3,6.7,1.8
					c0.4,1.1-0.4,2.2-1.3,2.8c-1.1,0.8-1.7,0.4-2.8,0c-1.7-0.5-3,1.4-2.2,2.9c1.4,2.6,5.1,2.2,7.2,0.8c2.3-1.5,3.9-4.3,3.2-7.1
					c-0.7-2.8-3-4.1-5.7-4.3c-1.7-0.1-6.4-0.3-5.9,2.5C236.6,29.1,237.8,29.3,238.4,28.7L238.4,28.7z"/>
			</g>
		</g>
		<g>
			<g>
				<path class="st11" d="M241.8,36.9c0.2,1.4,0.8,2.8,1.3,4.2c0.5,1.4,0.8,2.8,1.5,4.1c0.5,1,2,1.3,2.9,0.8
					c1.1-0.6,1.2-1.9,0.8-2.9c-0.5-1.2-1.3-2.4-1.9-3.6c-0.6-1.2-1.1-2.5-1.8-3.6C243.7,34.2,241.5,35.3,241.8,36.9L241.8,36.9z"/>
			</g>
		</g>
		<g>
			<g>
				<path class="st11" d="M251.6,26.9c-1,2.6-0.7,5.7-0.6,8.4c0.1,3.1,0.2,6.3,0.5,9.4c0.1,1.1,0.9,2.1,2.1,2.1
					c2.3-0.1,4.7-0.2,7-0.2c2.7,0,2.7-4.4,0-4.2c-2.3,0.1-4.7,0.2-7,0.3c0.7,0.7,1.4,1.4,2.1,2.1c-0.2-3.1-0.5-6.3-0.7-9.4
					c-0.2-2.8,0.1-5.8-0.9-8.4C253.5,25.8,252.1,25.8,251.6,26.9L251.6,26.9z"/>
			</g>
		</g>
		<g>
			<g>
				<path class="st11" d="M253.6,36.9c0.8,0.2,1.5,0.2,2.3,0.2c0.6,0,1.3-0.1,1.9,0c1.4,0.2,2.8-0.6,2.8-2.1c0-1.4-1.4-2.6-2.8-2.1
					c-1.5,0.5-3.1,0.5-4.6,1.2C252,34.6,252.4,36.5,253.6,36.9L253.6,36.9z"/>
			</g>
		</g>
		<g>
			<g>
				<path class="st11" d="M252.8,28.7c1.3,0.5,2.9,0.3,4.3,0.5c1.4,0.2,2.9,0.6,4.1-0.3c1.2-0.9,1.5-3.5-0.5-3.8
					c-1.3-0.2-2.7-0.1-4.1-0.1c-1.4,0-3,0-4.2,0.7C251.1,26.5,251.5,28.2,252.8,28.7L252.8,28.7z"/>
			</g>
		</g>
		<g>
			<g>
				<path class="st11" d="M267.6,27C267.6,27,267.6,26.9,267.6,27c-0.4,0.4-0.7,0.9-1.1,1.4c0,0,0.1,0,0.1,0
					c-0.3-0.7-0.6-1.4-0.9-2.1c-1.5,1.3-0.7,5.2-0.7,6.8c0.1,3.6,0.2,7.2,0.4,10.8c0.1,2.8,4.5,2.8,4.4,0c-0.3-5.4,0-11.8-1.7-16.9
					c-0.3-0.8-1-1.2-1.8-1c0,0,0,0-0.1,0c-0.4,0.1-0.8,0.5-0.8,0.8c0,0,0,0.1,0,0.1c-0.1,0.5,0.1,1.1,0.5,1.3c0,0,0,0,0.1,0
					C266.9,28.7,267.7,27.9,267.6,27L267.6,27z"/>
			</g>
		</g>
		<g>
			<g>
				<path class="st11" d="M267.7,29.2c4,0.3,5.7,2.7,6,6.6c0.1,1.2,0.3,2.8-0.3,3.9c-1,2-2.9,1.7-4.8,1.7c-2.9-0.1-2.8,4.3,0,4.5
					c6.9,0.5,10-4,9.3-10.5c-0.6-5.6-4.4-10.7-10.6-9C265.6,26.7,266.1,29,267.7,29.2L267.7,29.2z"/>
			</g>
		</g>
		<g>
			<g>
				<path class="st11" d="M281.6,26.5c-1.3,3.8-0.4,9,0.1,12.9c0.4,2.9,1.2,6.4,4.7,6.9c8.7,1.2,7.7-13.2,7.3-18.2
					c-0.2-2.7-3.9-2.7-4.2,0c-0.2,2.4,0.1,4.8,0.1,7.2c0,1.4-0.1,2.7-0.5,4c0,1.1-0.5,1.7-1.5,1.9c-0.8,0.7-1.2,0.5-1.2-0.7
					c-1.1-1.8-0.8-5.5-1-7.6c-0.2-2.2-0.1-4.5-0.8-6.5C284,25.1,282.1,25,281.6,26.5L281.6,26.5z"/>
			</g>
		</g>
		<g>
			<g>
				<path class="st11" d="M297.6,27.4c1.4,2.8,2.2,6,3.5,8.9c1.4,3.2,3.1,6.2,4.9,9.2c1.5,2.6,5.5,0.2,4-2.3
					c-2.1-3.5-4.1-7.1-5.9-10.8c-1.1-2.1-2.1-6.5-4.5-7.3C298,24.6,297,26.2,297.6,27.4L297.6,27.4z"/>
			</g>
		</g>
		<g>
			<g>
				<path class="st11" d="M307.3,25.5c-2.2,2.4-3.5,5.5-4.9,8.4c-1.6,3.3-3.3,6.5-4.7,9.8c-1.1,2.6,2.5,4.8,3.8,2.2
					c1.8-3.4,3.5-6.9,5.1-10.4c1.3-2.9,2.9-5.8,3.3-9C310,25.2,308.1,24.6,307.3,25.5L307.3,25.5z"/>
			</g>
		</g>
	</g>
	<g>
		<g>
			<path class="st11" d="M621.7,27.4c1.1,0.3,2.3,0.2,3.4,0.3c1.2,0.1,2.3,0.3,3.4,0.6c3.1,0.9,4-4.2,0.6-4.4
				c-2.4-0.2-5.6-0.5-7.8,0.7C620.2,25.3,620.5,27.1,621.7,27.4L621.7,27.4z"/>
		</g>
	</g>
	<g>
		<g>
			<g>
				<path class="st11" d="M534,26.1c1.1,6.1,1.7,12.6,3.7,18.4c0.6,1.7,3.3,2,3.8,0c1.4-6,2.7-12.1,4-18.1c-1.2,0-2.5,0-3.7,0
					c1.9,5.8,3.6,11.7,5.5,17.5c0.6,1.9,3.8,2.3,4.2,0c0.9-5.6,1.4-11.5,3-16.9c0.8-2.7-3.5-3.9-4.2-1.2c-1.5,5.5-2,11.3-2.9,16.9
					c1.4,0,2.8,0,4.2,0c-1.9-5.8-4-11.6-5.9-17.4c-0.6-1.7-3.3-2-3.7,0c-1.4,6-2.8,12.1-4.1,18.1c1.3,0,2.6,0,3.8,0
					c-2.2-6-2.2-12.7-4.9-18.5C536,23.4,533.7,24.6,534,26.1L534,26.1z"/>
			</g>
		</g>
		<g>
			<g>
				<path class="st11" d="M558.6,25.6c0.1,5.9,0.3,11.7,0,17.6c-0.1,2.8,4.4,2.8,4.4,0c0-6-0.3-12.1-1.5-18
					C561.2,23.5,558.5,23.9,558.6,25.6L558.6,25.6z"/>
			</g>
		</g>
		<g>
			<g>
				<path class="st11" d="M564.9,27.7c1.6,1.2,4,0.6,5.9,1c1.9,0.3,3.8,0.5,5.6-0.1c2.3-0.7,1.6-3.6-0.5-3.9c-1-0.1-1.8,0.1-2.8,0.1
					c-1,0-1.9-0.2-2.9-0.2c-1.7-0.1-3.8,0.1-5.3,0.8C563.9,25.9,564.2,27.1,564.9,27.7L564.9,27.7z"/>
			</g>
		</g>
		<g>
			<g>
				<path class="st11" d="M569.6,26.7c-1.2,5-0.8,10.8-0.9,15.9c-0.1,2.9,4.5,2.9,4.5,0c-0.1-5.1,0.3-10.9-0.8-15.9
					C572,25.3,569.9,25.3,569.6,26.7L569.6,26.7z"/>
			</g>
		</g>
		<g>
			<g>
				<path class="st11" d="M580.6,25.7c0,5.8-0.1,11.7,0.2,17.5c0.1,2.7,4.1,2.7,4.2,0c0.3-5.8-0.5-12.2-1.7-17.8
					C583,23.8,580.6,24.2,580.6,25.7L580.6,25.7z"/>
			</g>
		</g>
		<g>
			<g>
				<path class="st11" d="M583.3,36.3c2.1-0.1,4.6-0.1,6.7,0.4c3.4,0.7,3.7-4.7,0-4.2c-2.2,0.3-4.5,0.4-6.7,0.6
					C581.2,33.2,581.1,36.4,583.3,36.3L583.3,36.3z"/>
			</g>
		</g>
		<g>
			<g>
				<path class="st11" d="M589.9,25.7c-0.9,2.6-0.7,5.5-0.8,8.3c-0.1,3.1-0.2,6.1-0.3,9.2c-0.1,3.1,4.8,3.1,4.8,0
					c-0.1-3.1-0.1-6.1-0.2-9.2c-0.1-2.7,0.1-5.7-0.8-8.3C592.1,24.4,590.4,24.4,589.9,25.7L589.9,25.7z"/>
			</g>
		</g>
		<g>
			<g>
				<path class="st11" d="M604.9,26c-0.5,5.5-0.1,11.5,0.2,17c0.2,2.6,4,2.7,4.1,0c0.1-5.7-0.1-11.9-1.2-17.4
					C607.6,23.7,605,24.3,604.9,26L604.9,26z"/>
			</g>
		</g>
		<g>
			<g>
				<path class="st11" d="M606.9,27.2c2,0.4,5.4,0.8,6.2,3.1c0.8,2.3-3.5,3-4.9,3.2c-2,0.3-2,3.7,0,4c3.9,0.6,9.5-2.7,9-7.2
					c-0.5-4.3-6.6-7.2-10.4-5.7C605.8,25,605.5,26.9,606.9,27.2L606.9,27.2z"/>
			</g>
		</g>
		<g>
			<g>
				<path class="st11" d="M610.4,36.6c0.9,1.9,1.7,4.6,2.5,6.9c1.1,3,5.4,1.2,4-1.7c-0.7-1.5-1.4-3-2.2-4.5
					c-0.6-1.1-1.1-2.8-2.5-3.1C610.8,34,609.8,35.3,610.4,36.6L610.4,36.6z"/>
			</g>
		</g>
		<g>
			<g>
				<path class="st11" d="M620.6,25.3c-1.3,5.6-0.9,11.9-1.2,17.7c0,1.1,1,2.3,2.2,2.2c2.6-0.3,5.2-0.4,7.9-0.6c2.9-0.2,3-4.6,0-4.5
					c-2.8,0.1-5.6,0.4-8.4,0.8c0.9,0.7,1.8,1.4,2.8,2.1c-0.1-5.8,0.5-12-0.6-17.7C622.9,24,620.9,24.1,620.6,25.3L620.6,25.3z"/>
			</g>
		</g>
		<g>
			<g>
				<path class="st11" d="M622.4,36.5c1.6,0.4,3.2,0.1,4.8,0.1c1.3,0,2.3-1.2,2.1-2.4c-0.2-1.2-1.4-2.2-2.7-1.8
					c-1.5,0.5-3.1,0.6-4.6,1.3C620.7,34.2,621.2,36.2,622.4,36.5L622.4,36.5z"/>
			</g>
		</g>
		<g>
			<g>
				<path class="st11" d="M634.5,25.8c-0.9,5.4-0.5,11.6-0.3,17c0.1,2.8,4.3,2.8,4.3,0c0.1-5.4,0.2-11.8-1.2-17
					C637,24.5,634.8,24.3,634.5,25.8L634.5,25.8z"/>
			</g>
		</g>
		<g>
			<g>
				<path class="st11" d="M636.1,27.4c2.8,1.2,5.9,2.4,6.7,5.7c0.9,3.7-0.4,8.1-4.7,8c-2,0-2.9,2.9-1.1,3.9c6,3,10.2-3.8,10.4-9
					c0.3-6.3-4.2-11.4-10.6-11.3C635.5,24.8,634.7,26.8,636.1,27.4L636.1,27.4z"/>
			</g>
		</g>
		<g>
			<g>
				<path class="st11" d="M650.2,25.2c-2.1,5.7-2.3,18.9,6.2,19.7c9.5,0.9,7-14.1,6.5-19.4c-0.3-2.8-4.8-2.9-4.5,0
					c0.3,2.5,0.5,5.1,0.6,7.6c0,1,0.1,2,0,3c-0.1,2.1,0.2,3.1-2.1,3.4c-2,0.2-2.3-0.5-2.8-2.3c-0.3-1.2-0.4-2.5-0.5-3.7
					c-0.2-2.7-0.1-5.4-0.4-8C653,23.9,650.9,23.5,650.2,25.2L650.2,25.2z"/>
			</g>
		</g>
		<g>
			<g>
				<path class="st11" d="M667.1,26.2c0.5,3.1,2.5,6.1,3.9,9c1.4,2.8,2.4,5.9,4.2,8.5c1.9,2.8,5.8-0.1,3.7-2.9
					c-3.7-4.7-5-11.9-9.8-15.7C668.1,24.2,666.9,25,667.1,26.2L667.1,26.2z"/>
			</g>
		</g>
		<g>
			<g>
				<path class="st11" d="M676.1,24.9c-2.1,2.4-3.3,5.6-4.8,8.4c-1.7,3.1-3.5,6.1-5.4,9.1c-1.6,2.5,2.4,4.9,4,2.3
					c2-3.1,3.9-6.3,5.5-9.7c1.4-2.8,3.1-5.9,3.3-9C678.8,24.7,677,23.9,676.1,24.9L676.1,24.9z"/>
			</g>
		</g>
	</g>
	<path class="st2" d="M437.1,452.8c-0.7-0.7-1.3-1.1-2-1.1c-0.6-2-2-2-3.5-1.1c-0.9-1.3-2.6-1.1-4.3-0.1c-0.1,0-0.2-0.1-0.4-0.1
		c-1.7-0.4-3.4,0.3-4.8,1.4c-2.7,0-5.1,1.8-6.9,4.4c-3.1,3.3-5,8.6-5.8,12.1c-0.6,2.4,0.5,3.9,2,4.2c0.6,4.5,2.9,8.2,7.2,9.2
		c0.3,0.2,0.6,0.4,1,0.6c1.1,0.5,2.3,0.7,3.5,0.7c0.2,0.1,0.5,0.2,0.8,0.3c1,0.2,1.9,0.1,2.7-0.2c1,0.1,2.2,0,3.5-0.5
		c1.1-0.4,2.1-1,3.1-1.7c2.7-0.6,4.7-3,5.8-5.6c0.2-0.2,0.3-0.4,0.5-0.6C444.7,467.6,442.5,459.1,437.1,452.8z"/>
	<g>
		<g>
			<path class="st11" d="M432.3,453c-7.4-3.8-17,0.7-20.3,8c-3.6,7.9,0.1,17.3,8.1,20.6c7.6,3.2,17.4-0.1,20.7-7.8
				c3.4-8.2-1-16.8-8.4-20.9c-2.2-1.2-4.1,2-1.9,3.3c5.1,3.1,8.9,8.4,7.2,14.7c-1.8,6.6-9.7,9.5-15.8,7.1c-6.2-2.4-9.2-9.7-6.2-15.8
				c2.8-5.6,9.5-7.9,15.2-6.1C432.8,456.8,434.1,453.9,432.3,453L432.3,453z"/>
		</g>
	</g>
	<g>
		<g>
			<g>
				<path class="st11" d="M468,463.3c-0.5-3.1-3.7-4.9-6.6-3.6c-3.3,1.5-3.5,5.8-3.5,9c0,3.5,0.3,7.5,4.5,8c2.9,0.4,6-1.7,5.7-4.9
					c-0.2-1.7-2.7-2.3-3.2-0.4c-0.4,1.4-2.5,2.6-3.3,0.8c-0.3-0.8-0.2-2.6-0.2-3.4c0-1.2,0-2.5,0.3-3.6c0.3-1.4,2.1-4.6,3.4-1
					C465.8,466,468.4,465.3,468,463.3L468,463.3z"/>
			</g>
		</g>
		<g>
			<g>
				<path class="st11" d="M481.5,468.1c0.7-3.6-1.1-8.4-5.2-9c-5-0.6-5.3,5.1-5.1,8.7c0.2,3.4,0.5,8.9,5,9c5.1,0.1,5.3-5.1,4.8-8.9
					c-0.3-2.2-3.6-1.2-3.3,0.9c0.2,1.4,0.4,2.1-0.3,3.4c-0.7,1.4-1.3,1.1-2-0.1c-0.7-1.4-0.7-3.9-0.7-5.4c0-0.6-0.1-1.4,0-2
					c0.5-2,1.9-2.7,3-1c0.8,1.2,0.8,2.9,1.3,4.3C479.3,469.2,481.2,469.5,481.5,468.1L481.5,468.1z"/>
			</g>
		</g>
		<g>
			<g>
				<path class="st11" d="M487.4,476.3c0.9-4.9-0.4-10.4,1-15.2c-1,0.3-1.9,0.5-2.9,0.8c2.8,3.1,3.9,9,4.8,12.9
					c0.3,1.6,2.4,1.6,3.2,0.4c1.2-1.7,1.7-4.1,2.3-6.1c0.9-2.6,1.9-5.1,3.3-7.4c-1.1-0.1-2.3-0.3-3.4-0.4c0.7,4.5,1,9.3,0.6,13.9
					c-0.2,2.5,4,2.5,3.8,0c-0.3-5-0.1-9.9-0.9-14.9c-0.3-1.6-2.6-1.7-3.4-0.4c-1.2,2-2.1,4.1-2.9,6.3c-0.8,2.3-1.2,5.3-2.6,7.3
					c1.1,0.1,2.1,0.3,3.2,0.4c-1.1-4.6-2.5-10.8-5.7-14.4c-0.9-1-2.5-0.4-2.9,0.8c-0.7,2.5-0.5,5.3-0.6,7.8
					c-0.1,2.8-0.2,5.6,0.3,8.3C485,477.6,487.2,477.6,487.4,476.3L487.4,476.3z"/>
			</g>
		</g>
		<g>
			<g>
				<path class="st11" d="M503.2,460.3c-0.3,4.7-1.2,9.6-0.7,14.3c0.3,2.3,4,2.3,3.7,0c-0.6-4.9,0.8-9.9-0.6-14.6
					C505.2,458.6,503.3,458.9,503.2,460.3L503.2,460.3z"/>
			</g>
		</g>
		<g>
			<g>
				<path class="st11" d="M505.2,462c1.3-0.1,5.8-0.6,5.7,1.8c0,0.8-1.1,1.3-1.7,1.7c-1.1,0.6-1.9,0.8-3.1,0.7
					c-2.1-0.3-2.2,2.9-0.5,3.5c1.9,0.7,4.1-0.4,5.7-1.4c1.6-1,3-2.4,3-4.5c-0.1-2-1.4-3.6-3.1-4.4c-2.1-0.9-4.3-0.4-6.3,0.2
					C503.6,460,503.8,462.1,505.2,462L505.2,462z"/>
			</g>
		</g>
		<g>
			<g>
				<path class="st11" d="M526.5,468c0.4-3-0.6-8-4.2-8.5c-4.4-0.7-5.5,4.5-5.6,7.7c-0.1,3.5,0.5,8.9,4.7,9.7
					c4.5,0.9,5.5-4.4,5.4-7.7c-0.1-2-3.2-2-3.1,0c0,1.5-0.8,6.8-2.9,3.3c-0.9-1.6-0.9-4-0.7-5.8c0.1-1.7,1.1-5.5,3-3
					c0.8,1.1,0.8,3.3,1.3,4.6C524.6,469.6,526.3,469.3,526.5,468L526.5,468z"/>
			</g>
		</g>
		<g>
			<g>
				<path class="st11" d="M533.1,476.1c0.8-5.2,0.6-10.6,0.7-15.8c0-2.1-3.3-2.1-3.3,0c-0.1,5.1-0.6,10.4,0,15.4
					C530.7,477.1,532.9,477.7,533.1,476.1L533.1,476.1z"/>
			</g>
		</g>
		<g>
			<g>
				<path class="st11" d="M531.7,460.2c0.2,2.4,1.6,4.5,2.6,6.7c1.3,2.8,2.6,5.7,3.5,8.7c0.7,2.3,4.4,1.3,3.6-1
					c-0.9-2.8-2-5.5-3.3-8.1c-1.2-2.4-2.5-5.4-4.7-7.1C532.8,459,531.6,459.2,531.7,460.2L531.7,460.2z"/>
			</g>
		</g>
		<g>
			<g>
				<path class="st11" d="M538.6,460.1c-0.6,4.8-0.3,9.9-0.6,14.7c-0.2,2.5,3.4,2.3,3.8,0c0.6-4.8,0.9-10.4-0.8-15.1
					C540.5,458.5,538.8,458.8,538.6,460.1L538.6,460.1z"/>
			</g>
		</g>
		<g>
			<g>
				<path class="st11" d="M545.9,461.2C545.9,461.2,545.9,461.2,545.9,461.2c-0.3-0.5-0.6-1.1-0.9-1.6c-1,1.9-0.6,5.1-0.7,7.1
					c-0.1,2.6-0.5,5.8,0.1,8.4c0.1,0.6,0.7,1.1,1.2,1.2c2,0.4,4.3-0.2,6.3-0.3c2.4-0.2,2.3-4,0-3.7c-1.5,0.2-3.9,0.9-5.3,0.6
					c0.4,0.4,0.8,0.8,1.2,1.2c-0.4-1.5-0.1-3.5-0.1-5.1c0-1.7-0.1-3.5-0.1-5.2c-0.1-1.4,0.3-4.1-1.4-4.7c-0.8-0.3-1.6,0.6-1.3,1.3
					c0,0,0,0,0,0.1C545.1,460.9,545.4,461.2,545.9,461.2L545.9,461.2z"/>
			</g>
		</g>
		<g>
			<g>
				<path class="st11" d="M545.9,468c0.7,0.4,1.4,0.5,2.2,0.6c0.9,0.1,1.7,0.3,2.6,0.1c1.6-0.4,1.8-3.1,0-3.4
					c-0.8-0.1-1.5,0-2.3,0.1c-0.7,0.1-1.5,0-2.2,0.3C545.2,466,544.9,467.5,545.9,468L545.9,468z"/>
			</g>
		</g>
		<g>
			<g>
				<path class="st11" d="M547.7,459.6C547.7,459.6,547.7,459.6,547.7,459.6c-0.2,0.6-0.4,1.3-0.6,2c-0.4,0.2-0.4,0.2,0.1,0.2
					c0.3,0,0.6,0.1,0.8,0.1c0.5,0.1,1,0.1,1.6,0.2c1.1,0.1,2.3,0.1,3.2-0.5c1.5-1,0.9-3.3-0.9-3.4c-0.6,0-1.2,0.2-1.8,0.2
					c-0.6,0.1-1.1,0-1.7,0c-0.9,0-2.4,0-3.1,0.7c-0.4,0.4-0.6,1.3-0.2,1.8c0,0,0,0,0,0C546.3,462.7,548.5,461.4,547.7,459.6
					L547.7,459.6z"/>
			</g>
		</g>
		<g>
			<g>
				<path class="st11" d="M559.2,476.2c0.7-4.9-0.5-10.5,0.8-15.3c-1,0-2.1,0-3.1,0c2.1,5.4,4.5,10.6,7.7,15.4c1,1.5,3.7,1,3.6-1
					c-0.2-4.9-0.3-9.8,0.2-14.7c0.3-2.4-3.6-2.4-3.8,0c-0.4,4.9-0.4,9.8-0.3,14.7c1.2-0.3,2.4-0.6,3.6-1c-3.1-4.6-5.8-9.3-7.9-14.4
					c-0.6-1.4-2.6-1.6-3.1,0c-0.8,2.4-0.7,5-0.8,7.5c0,2.9-0.1,5.8,0.6,8.6C557.1,477.3,559,477.4,559.2,476.2L559.2,476.2z"/>
			</g>
		</g>
		<g>
			<g>
				<path class="st11" d="M570.3,461.7c1.3,0.9,2.9,0.5,4.4,0.5c1.8,0,3.6,0.2,5.4,0.3c2.4,0.2,2.5-3.8,0-3.9
					c-1.9-0.1-3.8,0-5.7,0.2c-1.5,0.1-3.2,0.1-4.3,1.2C569.6,460.6,569.8,461.4,570.3,461.7L570.3,461.7z"/>
			</g>
		</g>
		<g>
			<g>
				<path class="st11" d="M574.2,460.8c-0.4,4.8-0.4,9.7-0.7,14.5c-0.1,2.5,3.8,2.5,3.9,0c0.2-4.9,0.2-10-0.5-14.9
					C576.6,458.8,574.3,459.3,574.2,460.8L574.2,460.8z"/>
			</g>
		</g>
		<g>
			<g>
				<path class="st11" d="M590.2,459.5c-0.9,4.7-0.1,10-0.4,14.8c-0.1,2.4,3.8,2.4,3.8,0c0-4.7,0.5-10.3-1-14.8
					C592.3,458.4,590.5,458.2,590.2,459.5L590.2,459.5z"/>
			</g>
		</g>
		<g>
			<g>
				<path class="st11" d="M599.4,475.8c0.6-2.3,0.5-4.7,0.5-7c0.1-2.6,0.3-5.2,0.1-7.8c-0.1-1.6-2.7-2.2-3-0.4
					c-0.4,2.5-0.4,5.1-0.4,7.6c0,2.5-0.3,5.1,0.4,7.5C597.4,476.9,599.1,476.9,599.4,475.8L599.4,475.8z"/>
			</g>
		</g>
		<g>
			<g>
				<path class="st11" d="M597.8,460.5c0.3,5.3,3.7,11.1,6.6,15.5c1.3,2.1,4.6,0.1,3.3-1.9c-1.6-2.4-3-4.8-4.3-7.4
					c-1.1-2.4-2-5-3.7-7C599,459.1,597.8,459.6,597.8,460.5L597.8,460.5z"/>
			</g>
		</g>
		<g>
			<g>
				<path class="st11" d="M607.3,460.6C607.3,460.6,607.3,460.6,607.3,460.6c-0.3,0.2-0.7,0.5-1,0.8c0,0,0,0,0.1,0
					c-0.3-0.6-0.7-1.2-1-1.7c-0.9,1.7-0.5,4.5-0.5,6.3c0,3,0,5.9,0,8.9c0,2.5,3.8,2.5,3.8,0c0-4.9,0-10-1-14.8
					c-0.1-0.4-0.5-0.9-0.9-0.9c0,0-0.1,0-0.1,0c-0.7-0.1-1.5,0.3-1.5,1.1c0,0,0,0,0,0.1c0.1,0.6,0.5,1.1,1.1,1.1c0,0,0,0,0,0
					C606.7,461.4,607.2,461.1,607.3,460.6L607.3,460.6z"/>
			</g>
		</g>
		<g>
			<g>
				<path class="st11" d="M611.5,460.1c-0.6,4.7-0.3,9.7-0.4,14.5c-0.1,2.5,3.9,2.5,3.9,0c0-4.9,0.2-10-0.6-14.9
					C614.1,457.9,611.7,458.6,611.5,460.1L611.5,460.1z"/>
			</g>
		</g>
		<g>
			<g>
				<path class="st11" d="M616.9,461.8c1.4,0.4,2.9,0.3,4.4,0.2c1.6,0,3.2,0,4.8-0.2c2-0.3,2.1-3.3,0-3.2c-1.6,0-3.2,0.3-4.8,0.4
					c-1.5,0.1-3,0.1-4.4,0.7C615.9,460,615.8,461.5,616.9,461.8L616.9,461.8z"/>
			</g>
		</g>
		<g>
			<g>
				<path class="st11" d="M620.7,460.5c-0.3,4.9,0.1,9.8-0.3,14.7c-0.2,2.1,3.4,2.2,3.4,0c-0.1-5,0.1-10-0.8-15
					C622.8,458.8,620.8,459.2,620.7,460.5L620.7,460.5z"/>
			</g>
		</g>
		<g>
			<g>
				<path class="st11" d="M630.4,459.9c-1.5,4.6-1.1,10.6-1,15.4c0.1,2.3,3.4,2.3,3.5,0c0.3-4.8,0.9-10.7-0.4-15.4
					C632.3,458.8,630.7,458.8,630.4,459.9L630.4,459.9z"/>
			</g>
		</g>
		<g>
			<g>
				<path class="st11" d="M639.8,459.6c-1.8,4.7-2.4,10.2-3.7,15.1c-0.6,2.2,2.8,3.1,3.4,0.9c1.3-4.9,3-10.6,2.6-15.7
					C641.9,458.6,640.3,458.4,639.8,459.6L639.8,459.6z"/>
			</g>
		</g>
		<g>
			<g>
				<path class="st11" d="M640.5,459.6c0.6,5.4,2.2,10.9,3.9,16.1c0.7,2.2,4.1,1.3,3.4-0.9c-1.6-5.1-3-10.5-5-15.5
					C642.4,458.2,640.4,458.2,640.5,459.6L640.5,459.6z"/>
			</g>
		</g>
		<g>
			<g>
				<path class="st11" d="M640.3,472.6c1.3,0.1,2.8,0.4,4.1-0.1c0.7-0.2,1.1-0.8,1.1-1.5c0-0.6-0.5-1.4-1.1-1.5
					c-1.4-0.2-2.7,0.2-4.1,0.2C638.4,469.8,638.4,472.4,640.3,472.6L640.3,472.6z"/>
			</g>
		</g>
		<g>
			<g>
				<path class="st11" d="M647.8,461.3c2.9,0.5,6.2,0.8,9.2,0.3c1.9-0.3,1.3-3.1-0.4-3.2c-1.5-0.1-3.1,0.1-4.7,0.2
					c-1.4,0-2.8-0.1-4.1,0.4C646.8,459.4,646.5,461.1,647.8,461.3L647.8,461.3z"/>
			</g>
		</g>
		<g>
			<g>
				<path class="st11" d="M651.5,460.4c0.5,4.8-0.4,10-0.4,14.8c0,2.1,3.3,2.1,3.3,0c0-4.9,0.5-10.3-0.5-15.1
					C653.6,458.7,651.4,459,651.5,460.4L651.5,460.4z"/>
			</g>
		</g>
		<g>
			<g>
				<path class="st11" d="M661.2,459.8c-0.4,2.3,0,4.7,0,7c0.1,2.6-0.1,5.2-0.1,7.8c-0.1,2.1,3.2,2.1,3.3,0c0.3-4.6,0.6-10.8-1.3-15
					C662.8,458.7,661.3,459,661.2,459.8L661.2,459.8z"/>
			</g>
		</g>
		<g>
			<g>
				<path class="st11" d="M667.5,460c-0.7,5.1-0.3,10.5-0.6,15.7c-0.1,2.2,3.3,2.2,3.4,0c0.2-5.2,0.6-10.9-0.6-16
					C669.4,458.3,667.6,458.8,667.5,460L667.5,460z"/>
			</g>
		</g>
		<g>
			<g>
				<path class="st11" d="M668,460.5c1.8,5.4,4.8,10.8,7.9,15.6c1.2,1.8,4.2,0.1,2.9-1.7c-3.3-4.7-5.3-10.2-8.7-14.8
					C669.5,458.5,667.6,459.1,668,460.5L668,460.5z"/>
			</g>
		</g>
		<g>
			<g>
				<path class="st11" d="M676.3,460.1c-0.2,4.8-0.5,9.6-0.7,14.4c-0.1,2.4,3.6,2.4,3.8,0c0.2-4.8-0.1-9.6-0.7-14.4
					C678.4,458.6,676.3,458.5,676.3,460.1L676.3,460.1z"/>
			</g>
		</g>
		<g>
			<g>
				<path class="st11" d="M691.7,463.6c-0.2-3.1-2.6-6-5.9-5.5c-3.5,0.6-4,4.4-3.9,7.3c0,3,0.3,8.7,3.3,10.5
					c3.2,1.9,5.9-2.1,6.5-4.8c0.4-1.8-2.1-2.4-2.7-0.8c-0.2,0.5-0.8,2.1-1.4,2.3c-1.5,0.7-1.6-1-1.9-1.9c-0.5-1.6-0.7-3.3-0.8-4.9
					c0-1.1-0.3-3.2,0.5-4.1c1.7-2.1,3.4,1.1,4.1,2.4C690,465.1,691.7,464.8,691.7,463.6L691.7,463.6z"/>
			</g>
		</g>
		<g>
			<g>
				<path class="st11" d="M687.1,469.8c1.5,0.4,2.9,0.4,4.4,0.5c-0.6-0.4-1.1-0.8-1.7-1.3c0.4,1.8,0.5,3.7,0.7,5.6
					c0.1,1,0.7,1.8,1.8,1.8c0.9,0,1.9-0.8,1.8-1.8c-0.2-2.3-0.2-4.8-1.1-6.9c-0.3-0.7-1.3-0.9-2-0.8c-1.2,0.2-2.4,0.2-3.6,0.4
					C686.1,467.5,685.6,469.4,687.1,469.8L687.1,469.8z"/>
			</g>
		</g>
		<g>
			<g>
				<path class="st11" d="M711.8,463.9c0.9-3.2-2.2-5.5-5.2-5.2c-3.9,0.5-4.9,4-4.9,7.3c0,3.2,0.3,8.5,3.8,9.9
					c3.2,1.3,6.6-1.1,7.2-4.3c0.3-1.7-2.1-3-3-1.3c-0.7,1.5-1.8,4.2-3.8,1.2c-0.7-1-0.6-3-0.7-4.1c-0.1-1.1-0.2-2.8,0.2-3.8
					c0.8-1.9,3.1-1.8,3.6,0.2C709.4,465.3,711.4,465.3,711.8,463.9L711.8,463.9z"/>
			</g>
		</g>
		<g>
			<g>
				<path class="st11" d="M715.7,460.1c-0.4,2.2-0.2,4.5-0.2,6.8c0.1,2.5,0,5,0.3,7.5c0.2,2.2,3.4,2.3,3.5,0c0-2.5-0.2-5-0.4-7.5
					c-0.2-2.3-0.1-4.6-0.8-6.8C717.8,459,715.9,458.8,715.7,460.1L715.7,460.1z"/>
			</g>
		</g>
		<g>
			<g>
				<path class="st11" d="M717.4,468.8c0.9,0.1,1.9,0.3,2.8,0.5c0.9,0.1,2,0.4,2.9,0.2c2.2-0.3,2.3-3.3,0-3.4
					c-0.9,0-1.8,0.2-2.7,0.2c-0.9,0-1.8,0.1-2.7,0C716.4,466.2,716,468.6,717.4,468.8L717.4,468.8z"/>
			</g>
		</g>
		<g>
			<g>
				<path class="st11" d="M723.4,460.1c-0.3,4.9-0.5,9.8-0.6,14.8c0,2.5,4,2.5,3.9,0c-0.2-5,0.6-10.3-0.9-15.1
					C725.4,458.4,723.5,458.7,723.4,460.1L723.4,460.1z"/>
			</g>
		</g>
		<g>
			<g>
				<path class="st11" d="M731.5,475.7c2.3-4.5,3.5-10,4.7-14.9c-1,0.1-2,0.3-3,0.4c2,4.5,2.6,9.3,3.8,14.1c0.5,2,3.9,1.6,3.7-0.5
					c-0.5-5.2-2.5-10.1-4.5-14.8c-0.6-1.4-2.7-1.7-3.2,0c-1.4,4.8-3.4,9.8-4,14.7C728.8,476.1,730.7,477.2,731.5,475.7L731.5,475.7z
					"/>
			</g>
		</g>
		<g>
			<g>
				<path class="st11" d="M733.3,472.7c0.6-0.2,1.6,0.1,2.3,0.1c1,0.1,1.7,0.3,2.6-0.2c1-0.6,1.1-2.3,0-2.8c-1.1-0.5-2-0.2-3.2-0.1
					c-0.9,0.1-1.8,0.2-2.7,0.6C731,471,731.9,473.3,733.3,472.7L733.3,472.7z"/>
			</g>
		</g>
		<g>
			<g>
				<path class="st11" d="M746,475.6c0.5-5.1,0.3-10.1,0.4-15.2c-0.9,0.3-1.9,0.5-2.8,0.8c2.3,5,4.8,10,7.3,15
					c0.8,1.5,3.1,1,3.5-0.5c0.8-2.6,0.3-4.9,0-7.5c-0.3-2.8,0.3-5.6,0-8.4c-0.2-2.3-3.9-2.3-3.7,0c0.2,2.3-0.3,4.6-0.2,6.9
					c0.1,2.7,0.9,5.3,0.2,8c1.2-0.2,2.3-0.3,3.5-0.5c-2.5-4.9-5.1-9.9-8-14.5c-0.8-1.3-2.8-0.8-2.8,0.8c-0.1,5.1-0.4,10.1,0,15.2
					C743.5,477.4,745.9,477.3,746,475.6L746,475.6z"/>
			</g>
		</g>
		<g>
			<g>
				<path class="st11" d="M768,463.9c0.3-3.1-2.8-5.5-5.8-4.9c-3.4,0.7-4.3,4.3-4.5,7.3c-0.3,3.1,0,7.1,2.9,8.9
					c3.1,2,6.1,0.3,7.6-2.7c1-1.9-1.9-3.6-2.9-1.7c-0.2,0.6-0.6,1.1-0.9,1.6c-1.7,0.5-2.7,0-3-1.5c-0.4-1.1-0.4-2.4-0.3-3.6
					c0.1-1.1,0-3.2,0.9-4.2c1.8-2,3,0.1,3.8,1.4C766.3,465.6,767.9,465.1,768,463.9L768,463.9z"/>
			</g>
		</g>
		<g>
			<g>
				<path class="st11" d="M763.3,470c1.3,0.6,2.7,0.4,4.1,0.7c-0.4-0.3-0.7-0.5-1.1-0.8c0,0,0,0.1,0.1,0.1c-0.1-0.3-0.2-0.6-0.2-0.9
					c0,1.8-0.3,3.5-0.3,5.3c-0.1,2.4,3.6,2.4,3.7,0c0.1-1.1,0.1-2.3,0.1-3.4c0-1,0.2-2.1-0.4-2.9c-0.7-0.9-1.5-0.8-2.5-0.7
					c-1.1,0.2-2.1,0.1-3.2,0.3C762.5,467.9,762.3,469.5,763.3,470L763.3,470z"/>
			</g>
		</g>
		<g>
			<g>
				<path class="st11" d="M779.8,458.8c-2.2-0.4-4.3-0.4-6.5-0.1c-1.3,0.1-1.9,1.1-1.8,2.3c0.6,4.3,0.6,8.8,0,13.1
					c-0.1,1,0.4,2.3,1.7,2.2c2-0.2,4-0.2,6-0.2c2.6,0,2.5-4.2,0-4c-2,0.2-4,0.4-6,0.7c0.6,0.6,1.2,1.2,1.7,1.7
					c0.5-4.7,0.5-9.3,0.2-14c-0.6,0.6-1.2,1.2-1.8,1.8c2-0.1,4.1-0.1,6.1-0.4C781,461.8,781.7,459.2,779.8,458.8L779.8,458.8z"/>
			</g>
		</g>
		<g>
			<g>
				<path class="st11" d="M773.9,468.9c1.4,0.4,3,0.6,4.5,0.4c1.1-0.1,1.9-0.9,1.8-2c-0.1-1.1-1.2-1.7-2.2-1.5
					c-1.3,0.3-2.6,0.5-4,0.7C772.7,466.7,772.9,468.6,773.9,468.9L773.9,468.9z"/>
			</g>
		</g>
	</g>
</g>
<g id="Layer_3">
	<path class="st10" d="M535.5,132.3c-1.4-5.5-3.5-11.1-7.6-15.2c-8.5-8.3-22.5-13.1-34.1-14.4c-12.5-1.3-26.4-1.3-38.4,2.9
		c-1.1,0.4-2.2,0.8-3.4,1.3c-6.2,0.6-12.2,1.8-18.2,3.6c-1.8,0.6-4.3,3.4-5.8,6.4c-0.2-0.1-0.3-0.1-0.5-0.2
		c-3.3-1.3-6.8,1.8-8.4,5.5c-0.2,0.1-0.4,0.3-0.6,0.4c-3.2,2.5-6.9,8.4-5.2,12.7c-4.5,1.9-8.9,9.9-4.4,13c2.2,1.5,4.6,2.8,7.1,4
		c-1.6,2.7-2.1,5.9-0.5,7.7c9.5,10.6,22.1,16.8,35.8,20c13.5,3.2,30.8,6.1,43.7-0.2c1.7-0.8,3-2.8,3.9-4.9c2.2,0.1,4.5,0.2,6.7,0.2
		c3.2,0,5.6-2.8,6.9-5.5c0.4-0.8,1-2.5,1.1-4.1c3.1-0.1,6.2-0.3,9.3-0.5c4.1-0.3,9.5-6.6,8-11.1c2.7-2.1,4.9-5.9,4.4-8.9
		C537.4,140.9,536.6,136.7,535.5,132.3z M487.8,124.4c2.2,0.7,4.4,1.5,6.5,2.4C492.2,126,490,125.2,487.8,124.4z"/>
	<g>
		<g>
			<path class="st13" d="M516.2,109.7c-1.4-0.8-2.8-1.6-4.4-2.3"/>
			<path class="st14" d="M502.3,104.4c-17.8-4.1-42.1-2.2-59.5,4.9c-22.7,9.2-33.4,25-30.5,38.9c2.3,11.1,12.9,21.4,30.7,26.7
				c17.8,5.4,42.8,5.1,61.6-1.8c16.2-6,25.8-15.9,29.4-25.7c4.2-11.6,0.6-22.3-9.6-31.5"/>
			<path class="st13" d="M520.5,112.7c-1.3-1-2.7-1.9-4.1-2.8"/>
		</g>
	</g>
	<g>
		<g>
			<g>
				<path class="st11" d="M452.7,136.3c-0.6-4.9-8.1-6.3-10.6-2.1c-1.4,2.3-0.5,4.5,1.4,6c1.2,1,2.6,1.7,3.8,2.8
					c0.6,0.6,1.3,1.4,1.5,2.2c0.5,1.9-2.4,2.6-2.8,0.4c-0.4-2.5-4.8-1.9-4.5,0.6c0.7,5.5,8.5,8.2,11.1,2.4c1.1-2.5,0.5-5.2-1.1-7.2
					c-0.9-1.2-2-2.1-3.1-2.9c-0.4-0.3-3.4-1.9-0.6-2.5c0.4-0.1,2.2,1.3,2.7,1.6C451.4,138,452.8,137.5,452.7,136.3L452.7,136.3z"/>
			</g>
		</g>
		<g>
			<g>
				<path class="st11" d="M454.8,135.5c1.6,0.6,3.5,0.4,5.2,0.4c1.9,0,3.7,0,5.6,0c2.7,0,2.7-4.4,0-4.2c-2,0.1-4,0.2-6,0.3
					c-1.8,0.1-3.5,0.1-5.1,0.8C453.3,133.4,453.8,135.1,454.8,135.5L454.8,135.5z"/>
			</g>
		</g>
		<g>
			<g>
				<path class="st11" d="M459.1,135c-0.2,4.6-0.4,9.2-0.7,13.7c-0.2,2.8,4.3,2.9,4.4,0c0.1-4.6,0.1-9.2-0.3-13.7
					C462.3,132.8,459.2,132.8,459.1,135L459.1,135z"/>
			</g>
		</g>
		<g>
			<g>
				<path class="st11" d="M480.1,140c1.3-3.5-0.1-8.2-4.6-7.9c-5.1,0.4-6.2,6.2-5.9,10.3c0.3,3.8,1.9,8.9,6.7,8.5
					c5.1-0.5,5.3-7.2,5.2-11.1c-0.1-2.5-3.8-2.5-3.9,0c-0.1,1.7,0.1,4-0.7,5.5c-1.5,3-2.9-0.4-3.1-2.2c-0.2-1.7-0.4-3.9,0.3-5.5
					c0.5-1.1,1.8-2.3,3-1.2c0.6,0.6,0.4,2.4,0.5,3.2C477.9,141,479.6,141.3,480.1,140L480.1,140z"/>
			</g>
		</g>
		<g>
			<g>
				<path class="st11" d="M484.3,133.7c-1,2.3-0.8,5.1-0.9,7.5c-0.1,2.8-0.1,5.6-0.1,8.3c0,2.9,4.7,2.9,4.5,0
					c-0.2-2.8-0.3-5.6-0.3-8.3c0-2.5,0.3-5.1-0.5-7.5C486.7,132.2,484.9,132.4,484.3,133.7L484.3,133.7z"/>
			</g>
		</g>
		<g>
			<g>
				<path class="st11" d="M486.5,135.9c0.8,0,3-0.3,3.7,0.3c0.5,0.4,0.5,1.5,0.3,2.1c-0.4,1.6-2.1,2.3-3.6,2
					c-2.7-0.5-3.9,3.6-1.2,4.2c4,0.9,8.3-1.5,8.8-5.8c0.2-1.8-0.4-3.8-1.8-5.1c-1.7-1.5-4.7-1.1-6.7-0.6
					C484.5,133.4,484.8,136,486.5,135.9L486.5,135.9z"/>
			</g>
		</g>
		<g>
			<g>
				<path class="st11" d="M488.4,143.6c0.3,1.3,0.9,2.5,1.5,3.7c0.6,1.2,1,2.5,1.7,3.6c1.3,2.5,5,0.3,3.8-2.2
					c-0.6-1.2-1.3-2.3-1.9-3.5c-0.6-1.1-1.2-2.3-2.1-3.3C490.1,140.6,488.1,142,488.4,143.6L488.4,143.6z"/>
			</g>
		</g>
		<g>
			<g>
				<path class="st11" d="M507.6,132.9c-2.4-0.4-5.1-1.2-7.5-0.6c-0.7,0.1-1.2,0.8-1.4,1.4c-0.7,2.5-0.2,5.5-0.1,8.1
					c0,2.5-0.4,5.5,0.2,8c0.2,0.7,0.8,1.3,1.5,1.5c1.9,0.5,4.3,0.1,6.3,0.1c2.9,0,2.9-4.7,0-4.5c-1.5,0.1-3.7,0.6-5.1,0.3
					c0.5,0.5,1,1,1.5,1.5c-0.6-2-0.2-4.7-0.2-6.8c0-2.1-0.6-5-0.1-7c-0.5,0.5-0.9,0.9-1.4,1.4c1.8-0.5,4.2-0.2,6.1-0.4
					C508.7,135.6,509.4,133.2,507.6,132.9L507.6,132.9z"/>
			</g>
		</g>
		<g>
			<g>
				<path class="st11" d="M502.3,143.9c0.7,0,1.3,0,2,0c0.7,0,1.3,0.2,2,0.2c1.1,0,2.1-1,2.1-2.1c0-1.2-1-2-2.1-2.1
					c-1.4-0.1-3.1,0.3-4.5,0.5C499.9,140.9,500.4,144,502.3,143.9L502.3,143.9z"/>
			</g>
		</g>
	</g>
</g>
</svg>
